<svg id="testrauksimage2_Image" data-name="testrauksimage2 Image" xmlns="http://www.w3.org/2000/svg" width="290.68" height="290.65" viewBox="0 0 290.68 290.65"><defs><style>.cls-1{fill:#010101;}.cls-2{fill:#252525;}.cls-3{fill:#131313;}.cls-4{fill:#0e0e0e;}.cls-5{fill:#232323;}.cls-6{fill:#0f0f0f;}.cls-7{fill:#5a5a5a;}.cls-8{fill:#565656;}.cls-9{fill:#1c1c1c;}.cls-10{fill:#474747;}.cls-11{fill:#4f4f4f;}.cls-12{fill:#161616;}.cls-13{fill:#313131;}.cls-14{fill:#9b9b9b;}.cls-15{fill:#060606;}.cls-16{fill:#333;}.cls-17{fill:#202020;}.cls-18{fill:#373737;}.cls-19{fill:#434343;}.cls-20{fill:#cfcfcf;}.cls-21{fill:#797979;}.cls-22{fill:#747474;}.cls-23{fill:#1b1b1b;}.cls-24{fill:#959595;}.cls-25{fill:#383838;}.cls-26{fill:#2b2b2b;}.cls-27{fill:#272727;}.cls-28{fill:#777;}.cls-29{fill:#b0b0b0;}.cls-30{fill:#595959;}.cls-31{fill:#343434;}.cls-32{fill:#242424;}.cls-33{fill:#757575;}.cls-34{fill:#5d5d5d;}.cls-35{fill:#616161;}.cls-36{fill:#3e3e3e;}.cls-37{fill:#3c3c3c;}.cls-38{fill:#bfbfbf;}.cls-39{fill:#4d4d4d;}.cls-40{fill:#2a2a2a;}.cls-41{fill:#626262;}.cls-42{fill:#606060;}.cls-43{fill:#9e9e9e;}.cls-44{fill:#7e7e7e;}.cls-45{fill:#080808;}.cls-46{fill:#303030;}.cls-47{fill:#0c0c0c;}.cls-48{fill:#393939;}.cls-49{fill:#727272;}.cls-50{fill:#191919;}.cls-51{fill:#717171;}.cls-52{fill:#585858;}.cls-53{fill:#7b7b7b;}.cls-54{fill:#4e4e4e;}.cls-55{fill:#181818;}.cls-56{fill:#2c2c2c;}.cls-57{fill:#464646;}.cls-58{fill:#515151;}.cls-59{fill:#3d3d3d;}.cls-60{fill:#b6b6b6;}.cls-61{fill:#adadad;}.cls-62{fill:#2e2e2e;}.cls-63{fill:#0d0d0d;}.cls-64{fill:#a5a5a5;}.cls-65{fill:#4b4b4b;}.cls-66{fill:#4a4a4a;}.cls-67{fill:#545454;}.cls-68{fill:#8f8f8f;}.cls-69{fill:#c4c4c4;}.cls-70{fill:#656565;}.cls-71{fill:#6e6e6e;}.cls-72{fill:#878787;}.cls-73{fill:#8e8e8e;}.cls-74{fill:#6f6f6f;}.cls-75{fill:#a0a0a0;}.cls-76{fill:#ccc;}.cls-77{fill:#838383;}.cls-78{fill:#afafaf;}.cls-79{fill:gray;}.cls-80{fill:#5c5c5c;}.cls-81{fill:#cbcbcb;}.cls-82{fill:#818181;}.cls-83{fill:#939393;}.cls-84{fill:#a7a7a7;}.cls-85{fill:#737373;}</style></defs><path class="cls-1" d="M292.57,291.56q-142.42,0-284.86.1c-4.47,0-5.85-1-5.81-5.68.22-32.6.16-65.21.05-97.81,0-3.44.65-5.55,4.28-6.63,12.9-3.82,21.05-13,26.06-24.93,3.22-7.65,9.47-10.46,16.4-12.35,8.46-2.3,15.61-5.48,18.36-14.93.87-3,6.59-4.81,4.07-8.54-1.34-2-5.85-1.79-8.88-2.73-10.7-3.34-17.18-12.65-9-22.75,2.8-3.44,2.66-5.91,1-10.5-3.67-10.12-3.76-20.93,3-30.54,4.62-6.56,9-13.31,13.9-19.66,9.1-11.79,20.38-21,34.62-25.78,5.08-1.71,10.64-2.25,16-2.71,8.32-.72,16.69-.81,25-1.5.93-.08,1.67-2.35,2.49-3.61h23.21c6,3.22,11.94,6.74,18.17,9.53,3.15,1.41,7.14,1,10.32,2.31,4.46,1.91,9.08,3.83,11.11,9.17,3.38,8.87,7.95,17.34,10.72,26.37,3.22,10.54,2.13,21.42-.73,32.06a15.2,15.2,0,0,0-.82,4.32c.16,4.76.54,9.51.86,14.53,6.34,1.36,7.71,3.09,4.69,10.3-2.67,6.37-2.5,11.15,2.44,16.43,6.19,6.6,7.65,14.56,3.83,23.22-1.67,3.79-2.48,8-4.16,11.74-1.52,3.45-.4,5.39,2.31,7.55a194.9,194.9,0,0,0,61.31,33.23ZM67.48,47.44q-4,5-8,10c-6.8,7.16-4.37,20.21-2,26.73.83,2.26,2,4.41,3,6.6,0,.31,0,.62,0,.92-7.45,5.36-10.4,14.56-5.09,18.93,3.66,3,9.32,3.62,14.08,5.29,3.83.29,4.77,3,5.11,6.15-.9,2.2-1.67,4.46-2.74,6.57-1.31,2.57-2.86,5-4.31,7.51-2.33,4.81-6.53,7.39-11.28,9.09-5,1.78-10.05,3.22-15.09,4.81l-1.89,1.2c-5.39,8-10.85,15.87-16.12,23.9-1,1.58-1.38,3.61-2,5.43l-3,1.86c-3.23-1.52-12.24,1.14-12.41,4-.32,5.07.18,10.2.34,15.3-.3,1.64-.59,3.29-.88,4.94v7.11l0,8.24,0,1.88c-.07,10.79-.2,21.59-.11,32.38,0,1.33,1.24,2.65,1.9,4l-.08,2.56,2.15-.76a26.7,26.7,0,0,1-.47,5.09c-1,3.44-2.26,6.79-3.42,10.17,0,2.52-.38,5.09,0,7.54.21,1.29,1.7,3.37,2.62,3.38,5.15,0,10.3-.44,15.46-.75l23.23.94,5-.07h7l4.93-.08h7.19c4.63.05,9.27.13,13.91.15,7.23,0,7.23,0,7.29-7.36a13.13,13.13,0,0,1,0-2.51c.28-1.38.73-2.72,1.12-4.08.9,1.23,1.87,2.42,2.67,3.72a7,7,0,0,1,.4,2c1.44,6.58,3.13,8.08,9.89,8.27,5,.14,10.06,0,15.1,0l4.1,0,17.13-.05,20.13,0,8.12,0,3,0,4,0h4c3.33.06,6.67.18,10,.17,5,0,8.42-2.41,9.74-7.32,1.23-4.6,2.26-9.26,3.38-13.89,2.57.84,5.95.74,5.58,5,0,.36,1.11.78,1.63,1.26a30.74,30.74,0,0,1,2.9,2.92c2.54,3.1,4.45,7.13,7.64,9.21,5.2,3.38,11.53,3.35,17.66,2.74l5-6,3.06-9c-.4,3.28-.34,6.71-1.32,9.8-1.47,4.58.07,5.88,4.38,5.28h1c3.11-.45,6.24-1.34,9.34-1.27,7,.16,14,.8,20.94,1.24l2.07-.09c3.76.64,5.06-1,5-4.73-.15-16.56-.13-33.13-.17-49.69,0-4,0-7.95,0-11.93l0-6.12c-.07-2.65-.55-5.38-.1-7.95.67-3.8-1.12-5.24-4.34-5.81-4.85-.87-9.7-1.68-14.56-2.51,0-4.16-3.56-4.88-6.22-6.31-13.61-7.34-27.1-14.84-38.42-25.62l-1.87-.27c1.66-5.81,3.51-11.57,4.94-17.43,1.25-5.08,4-10.29.89-15.49-2.2-3.68-5.06-7-7.62-10.43-2.24-4.12-1.9-8.33-1-12.77.63-3,.56-6.51-4.23-6.34-.73-2.4-2.81-6.08-2-7,4.29-4.54,4.9-9.3,3.17-15-.34-1.1.48-2.57.78-3.87l2.88-12.62c-.25-4,.17-8.1-.88-11.82-2.32-8.26-5.37-16.31-8.13-24.44q-3-5.13-5.93-10.26c-2.1-.48-3-4.82-6.13-1.9-1.67-1.05-3.52-3.2-5-3-6.81,1.16-11.11-3.69-16.49-6-4.79-2-9.86-3.4-14.81-5.07C156,2.08,149,7.68,141,8.52c-1,.1-1.87,1.65-2.81,2.52-5-.56-10.25,1-15-1.82-.73-.44-2-.2-3,0-6.35,1.5-13.45,1.78-18.85,4.94-8.49,5-15.84,11.89-23.66,18-2.1,2.29-4.52,4.36-6.22,6.91S68.77,44.63,67.48,47.44Z" transform="translate(-1.9 -1.01)"/><path class="cls-2" d="M138.17,11c.94-.87,1.8-2.42,2.81-2.52,8-.84,15-6.44,23.52-4.42q.52,2.9,1,5.78a12.94,12.94,0,0,1-3.67.37c-5.66-1.05-6-.82-5.37,5.08A23.4,23.4,0,0,0,158,21.14c1.49,3.81,6.47,6.32,10.27,4.46,1.24-.61,1.06-4.1,1.57-6.27.06-.26.37-.47,1.22-1.5.35,2.16.61,3.65.82,5.14.69,4.83,3.44,7.13,8.29,8s8.58-.47,12.77-2.23c5-2.1,8.15-5,7.86-10.67,3.14-2.92,4,1.42,6.13,1.9q-2,5.61-4.07,11.23c-.61,4.22,2.1,5.37,5.44,6.42,1.23.38,2,2.21,3,3.38-1.42.33-3,1.23-4.22.87-4.29-1.24-8.49-2.83-12.66-4.45-4.54-1.77-5.65-1.1-5.7,3.84,0,2.86,0,5.73,0,8.59-1.68-4.1-.43-8-4.81-12.1-3.24-3-6.27-3.65-9.62-4.67-2.8-.86-3.86.44-3.11,3.59.67,2.83.29,5.89.7,8.8a42.2,42.2,0,0,0,1.68,5.92l0,4-6.67.67c.83,2,1.72,4.2,2.6,6.37l-3,17,.81,4.1c4,4,9,4.67,14.33,4.21q-3.53,4-7.07,8.09c-1.42.33-2.89,1.1-4.25.93-6.43-.83-12.85-1.75-19.21-3-3.17-.59-6.21-2.71-9.3-2.67-7.58.09-15.15,1-22.72,1.64-1.94-1-4-3-5.81-2.86-3.2.28-3.69-1.36-4.27-3.57-.32-1.21-.73-2.4-1.1-3.6l-1.1.28v6.46c-1.34-2.45-1.91-4.32-3.15-5.53a7.74,7.74,0,0,0-4.39-1.86c-3.46-.35-7-.28-10.46-.38,1-2-.11-5.63,4.06-5.06.85.72,1.68,2,2.56,2.07,7.24.29,14.49.49,21.73.33,1.49,0,2.94-1.69,5.54-3.31l-16.56-1.54V72.14c3.8-.12,7.61-.51,11.39-.31,8.06.44,8,.44,7.85-7.49,0-2.16-1.64-6.28,4-5.07,1.51.33,3.77-2.85,5.69-4.42-.91-.92-1.89-1.78-2.71-2.77a2.82,2.82,0,0,1-.73-1.79c.33-4.15-2.45-3.92-5.24-4a47,47,0,0,1-5.24-.68c7.14-3.26,7.27-3.51,8.07-11,.25-2.3.94-4.56,1.42-6.84l.79.19-1.31,15.5,1.66.92a11.31,11.31,0,0,0,.64-2c.76-5.48,1.52-11,2.11-16.45.05-.49-1.06-1.17-1.71-1.64a16.32,16.32,0,0,0-2-1.11c.54-.55,1.12-1.06,1.6-1.65a40,40,0,0,0,4.13-5.28C137.4,14.73,137.64,12.81,138.17,11ZM127.48,74.5l4.53-.36c9.54-.76,9.67-.94,7.44-10.84a8,8,0,0,0-.54-1.92c-.66-1.26-1.44-2.45-2.17-3.67-1.39,1.56-4.28,3.9-3.94,4.58,2.93,5.75-.6,8.11-4.71,10.43C127.78,72.9,127.78,73.6,127.48,74.5Z" transform="translate(-1.9 -1.01)"/><path class="cls-3" d="M138.17,11c-.53,1.77-.77,3.69-1.66,5.25a40,40,0,0,1-4.13,5.28c-.48.59-1.06,1.1-1.6,1.65a16.32,16.32,0,0,1,2,1.11c.65.47,1.76,1.15,1.71,1.64-.59,5.49-1.35,11-2.11,16.45a11.31,11.31,0,0,1-.64,2l-1.66-.92L131.4,28l-.79-.19c-.48,2.28-1.17,4.54-1.42,6.84-.8,7.49-.93,7.74-8.07,11a47,47,0,0,0,5.24.68c2.79.07,5.57-.16,5.24,4a2.82,2.82,0,0,0,.73,1.79c.82,1,1.8,1.85,2.71,2.77-1.92,1.57-4.18,4.75-5.69,4.42-5.65-1.21-4,2.91-4,5.07.18,7.93.21,7.93-7.85,7.49-3.78-.2-7.59.19-11.39.31v2.09l16.56,1.54c-2.6,1.62-4,3.28-5.54,3.31-7.24.16-14.49,0-21.73-.33-.88,0-1.71-1.35-2.56-2.07,2.72-.67,5.41-1.54,8.17-2s3.67-1.92,3.18-4.51-.69-5.26-1.6-7.68c-.57-1.5-2.12-2.72-3.44-3.81-1-.81-2.5-1-3.47-1.81C91.2,53.1,91.14,53,89,58.54c-.56,1.44-.13,3.23-.39,4.82-.19,1.2-.62,3.27-1.18,3.35-3,.44-3,2.1-3,4.6.07,3-4.3,5-8.8,4.2-3.62-.61-2.3-3-2.28-5.33,0-1.91-1.65-3.85-2.56-5.77q-2.28,5.11-4.55,10.22l-1-.32.44-4.69a41.69,41.69,0,0,1,1.6-4.56c1.83-3.82,1.67-8.68,6-11.23.49-.28.5-1.91.25-2.77a21.49,21.49,0,0,0-1.83-3.61,53,53,0,0,0,5.9.26c.5,0,1-1.13,1.34-1.83.1-.24-.45-1.1-.68-1.09-5.18.21-2.85-2.34-2-4.81a53,53,0,0,0,1.44-7.81c7.82-6.09,15.17-13,23.66-18,5.4-3.16,12.5-3.44,18.85-4.94,1-.23,2.25-.47,3,0C127.92,12.08,133.17,10.48,138.17,11Z" transform="translate(-1.9 -1.01)"/><path class="cls-4" d="M121.07,288.53c-5,0-10.07.1-15.1,0-6.76-.19-8.45-1.69-9.89-8.27a7,7,0,0,0-.4-2c-.8-1.3-1.77-2.49-2.67-3.72-.39,1.36-.84,2.7-1.12,4.08a13.13,13.13,0,0,0,0,2.51c-.34-2.64-.48-5.32-1.06-7.91-.87-3.88-1.94-7.72-3.18-11.48-.27-.8-2-1.93-2.51-1.7-5.33,2.15-8.29-2.41-12-4.32a10.24,10.24,0,0,1-5.8-9.33c-.06-4.87-1.76-9-6.27-11.69a6.62,6.62,0,0,1-2.49-4.1c-.79-4.06-3.07-6.17-7.07-6.64,1.22-1.5,2.35-3.11,3.69-4.5,4.35-4.48,11.21-6.6,12.87-13.62l10.66-6.09c1.77-.46,3.56-.85,5.3-1.4,7.78-2.47,11.58.11,10.2,8.1-2,11.31,2.36,20.89,6.7,30.63l4.18,11.29L110,259.23l0,1.06a12,12,0,0,0,.8,2.35c4.23,7.25,10,13.83,9.28,23.11C120,286.64,120.71,287.6,121.07,288.53Z" transform="translate(-1.9 -1.01)"/><path class="cls-5" d="M78.69,199.75,68,205.84a4.9,4.9,0,0,0-.54,0c.34-1.36.67-2.71,1-4.07.47-3.13.79-6.29,1.47-9.37,1.15-5.23.33-6.37-4.9-5.48-6.24,1.07-12.44,2.44-18.66,3.67-.24-2.28-.53-4.55-.71-6.83-.25-3.37-.3-6.75-.66-10.1q-1-9.52-2.33-19a26.82,26.82,0,0,0-1.48-4.55c5-1.59,10.12-3,15.09-4.81,4.75-1.7,9-4.28,11.28-9.09,1.5,1.25,3,2.47,4.51,3.76,2,1.74,4.25,3.29,5.76,5.38,2.51,3.47,4.5,7.3,6.71,11a28.54,28.54,0,0,0,1,5.51c1,2.46,2.7,4.63,3.61,7.11,1.43,3.91,2.64,6.32,5.56.91.42-.78,2-.92,3.06-1.36l3.1,8.12c.22,6.62,3.18,10.68,10.21,11-3.6.5-2.25,2.42-1.22,4.25l-2,.9c-5-4.61-10.27-9-15-13.9-2.7-2.81-5.52-2.71-8.66-2-1,.24-1.87,1.17-2.8,1.79a19.36,19.36,0,0,0,2,2.43c1.89,1.63,3.92,3.1,5.82,4.72,2.24,1.93,1.81,3.29-.58,5.07C85.22,193.52,82,196.75,78.69,199.75Z" transform="translate(-1.9 -1.01)"/><path class="cls-6" d="M222.17,124.07c2.56,3.46,5.42,6.75,7.62,10.43,3.11,5.2.36,10.41-.89,15.49-1.43,5.86-3.28,11.62-4.94,17.43l-2.07,8.09-2,4.06c-1.58,2.83-3.22,5.63-4.71,8.51-1.28,2.49-2.37,5.08-3.54,7.63-4.54,6-9.59,11.69-13.5,18.08-4.8,7.84-8.68,16.25-12.9,24.45-2.89,5.59-7.12,10.81-4.94,17.87.29.93-.55,2.19-.87,3.3l-6-3.09-2-2c1.21-3.1,2.28-6.26,3.67-9.28,2-4.38,4.28-8.66,6.43-13,.33-.67.67-1.34,1-2,2-2.22,4.66-4.14,5.93-6.73,2.68-5.45,8.65-9.86,6.21-17.14a39.57,39.57,0,0,0-2.26-4.69c-1.46.92-3.47,1.5-4.3,2.82-4.69,7.49-9.1,15.15-13.61,22.75l-2,4-2.08,1c4.17-9.1,8-18.4,12.63-27.25,4.05-7.7,9.06-14.89,13.68-22.28,1.61-2.56,2.29-4.53-2.05-4,1.26-6,3.18-11.87,3.6-17.89.51-7.29,0-7.33,6.34-8.13,5.63,1,7-3.55,8.62-7.08C216.52,138.46,219.24,131.22,222.17,124.07Z" transform="translate(-1.9 -1.01)"/><path class="cls-7" d="M51.47,224c4,.47,6.28,2.58,7.07,6.64A6.62,6.62,0,0,0,61,234.7c4.51,2.72,6.21,6.82,6.27,11.69a10.24,10.24,0,0,0,5.8,9.33c3.72,1.91,6.68,6.47,12,4.32.55-.23,2.24.9,2.51,1.7,1.24,3.76,2.31,7.6,3.18,11.48.58,2.59.72,5.27,1.06,7.91-.06,7.36-.06,7.38-7.29,7.36-4.64,0-9.28-.1-13.91-.15,0-2.6,0-5.2,0-7.81,1.91-7.86.53-14.79-6.49-20.47,0,2-.75,5,.13,5.62,4.07,2.71,1.83,6.48,2.32,9.75-.53.95-1.07,1.9-1.72,3.05-.62-1.36-1.07-2.36-1.52-3.36l-.75.27q.45,6.47.89,12.95l-4.93.08c0-1.51,0-3,0-4.53,0-3.25-.75-6.74,2.59-9.05a12,12,0,0,1-3.15-9.08,12.36,12.36,0,0,0-.57-2.83l-1.69.22c.37,4.55,1,9.1,1,13.64,0,2.52-1.25,5-1.93,7.55-.93-2.12-1.85-4.25-2.8-6.36-.05-.12-.28-.16-.37-.21l-2.09,4.68h0l-.63-10.77H47.9l-.42,5.16-1.17-.1V262.25c.66-4.59,1.6-9.17,1.91-13.79.53-8.15.67-16.33,1-24.5Z" transform="translate(-1.9 -1.01)"/><path class="cls-8" d="M211.63,195.71c1.17-2.55,2.26-5.14,3.54-7.63,1.49-2.88,3.13-5.68,4.71-8.51l5.24,1.78-3.3,5.35.83.55,9-8.5L224,175.56c2.05-1.54,5.5-2.63,1.83-6-.31-.28,0-1.24.05-1.89,11.32,10.78,24.81,18.28,38.42,25.62,2.66,1.43,6.25,2.15,6.22,6.31-1.69,3.57-1.1,9.74-8.18,7.2a39.57,39.57,0,0,0-4.8,2.49c-1.59,1.11-2.72,3.22-4.41,3.76-5.4,1.72-5.47,6.38-6.85,10.37a9.54,9.54,0,0,0,2.48-3.06c.71-1.1,1.54-2.11,2.32-3.16-1.23,6.63-2.57,8.4-7.2,10.67-.26.13-.39.52-.57.8-.54.84-1.08,1.68-1.61,2.52l-1-.93,3-7.09-.79-.48-3,2.84-1.09-.79c4.86-8.2,9.71-16.41,15.33-25.89-1.8,1.62-2.52,2.23-3.2,2.88-1.39,1.34-2.52,4.46-4.78,1.57-.69-.87.2-3.72,1.2-5a79,79,0,0,1,6.91-7.28l-1.12-1L231.3,213.91l-.93-.5q2.35-4.82,4.7-9.62l8.22-11.11c-2.56-.38-5.18-.31-7.41-1.21-3.36-1.34-4.56-.58-5.68,2.87-1,3.19-3.4,5.95-5.21,8.95-3.93-3.06-3.21-5.26.76-6.86-3.3-2.41-5.23-1.72-6.44,1.57-1.61,4.36-4.84,6.19-9.41,5.77C210.48,201.08,211.05,198.4,211.63,195.71Z" transform="translate(-1.9 -1.01)"/><path class="cls-9" d="M60.54,91.72c0-.3,0-.61,0-.92,1.37-.5,3.44-.6,4-1.57,2.33-4.11,5.67-3.25,9.13-2.44,0,.34,0,.67,0,1a9.28,9.28,0,0,1-2.47,1.29,19.15,19.15,0,0,1-3.63,0c.53,1.27,1,2.56,1.61,3.78a12.69,12.69,0,0,0,1.47,2,36.2,36.2,0,0,0-4.71-.63c-.83,0-2.3.49-2.41,1-.57,2.72,2.65,6.5,5.53,6.59,4.48.13,9,.33,13.44.13,12.87-.58,25.73-1.35,38.59-2l-4.7,12.39c-1.35-1.78-1.55-4.26-1.9-4.28a91,91,0,0,0-11.91,0c-1.84.13-3.63,1.06-6.25,1.88-.34,1.55.72,3.2,3.85,2.86,2.57-.28,5.11-.9,7.67-1.31,1-.17,2.11-.18,3.17-.26a12.51,12.51,0,0,1,.07,2.86,17.7,17.7,0,0,1-1.24,3.08c4.41-.08,4.41-.08,3.15,3-2.37.54-4.74,1.11-7.12,1.64s-4.71,1.06-7.09,1.52c-1.75.34-3.6,1-5.29.78-6.73-1-13.17-1.68-16.21,7.08-.61-2.22-.37-4-.7-5.72-.23-1.17-1.25-2.19-1.92-3.28-.34-3.18-1.28-5.86-5.11-6.15.28-3.14-1.29-4.74-4.24-5.5a23.68,23.68,0,0,1-5.5-2.23,17.15,17.15,0,0,1-3-2.77h2.72Q60,98.62,60.54,91.72Z" transform="translate(-1.9 -1.01)"/><path class="cls-10" d="M289.47,215.89l0,6.12-2.66,5.69c-.3-.65-.7-1.49-1.41-3-.73,1.87-1.2,3.1-1.8,4.65-.6-1.33-.95-2.11-1.76-3.88v16.79c2-3.68,3.66-6.72,5.31-9.75l2.3,1.46c0,16.56,0,33.13.17,49.69,0,3.69-1.27,5.37-5,4.73-.35-5.65-.65-11.32-1.08-17-.06-.92-.65-2.56-1-2.57-3.57-.15-2.52-2.72-2.67-4.67-.08-1-.12-2.1-.18-3.14l-.94-.09c-.33,1.37-.65,2.74-1.3,5.48-.8-3.41-1.26-5.41-2.05-8.81L273.49,264c-.75-2.37-1.13-3.56-1.6-5-1.18,4.4-4.33,6.85-8,6.24-1.71-.28-3.06-4.23-4.09-6.72-.65-1.58-.4-3.52-.55-5.3a64.91,64.91,0,0,1,3.09-6.19c3.17-5,6.66-9.85,9.69-15,1-1.68,1-4,1.39-6,1.2-1.42,2.14-3.32,3.66-4.17C281.07,219.65,285.32,217.86,289.47,215.89Z" transform="translate(-1.9 -1.01)"/><path class="cls-11" d="M289.47,215.89c-4.15,2-8.4,3.76-12.4,6-1.52.85-2.46,2.75-3.66,4.17-3.87,4.76-8.3,9.18-11.51,14.36-6.31,10.21-11.57,21-13.72,33l-3.06,9c.09-2.74-.14-5.53.36-8.19a82.51,82.51,0,0,1,2.7-9.11l-.88-.22L237,277.5l-1.95-7.11,3.87-9.64.68.26q-.37,3-.76,6c2.8-3.88,2.4-10,9.11-10.52.42,0,.52-1.93,1.13-2.65,4.42-5.08.5-14.24,8.59-17.5.25-.1.36-.54.55-.82,2.45-3.58,4.39-7.72,7.52-10.53,2.22-2,1.61-2.36.27-4.09-1.2-1.53-3.82-3.07-1.35-5.77.55-.6.18-2.06.23-3.12-.9.76-2.17,1.35-2.64,2.32-5.05,10.32-10,20.7-14.95,31.05-.55,1.15-1.3,2.21-2,3.31l-.58-.35,2.83-9.12-1.13-.52c-1.13,1.3-2.26,2.61-3.4,3.91.54-3.18,1.6-7.75,3.32-8,7.18-1.1,5.6-7.42,7.73-11.55l-3.94,3.52c1.07-3.08,1.33-5,2.32-6.47,3.12-4.53,6.51-8.87,9.79-13.29,7.08,2.54,6.49-3.63,8.18-7.2,4.86.83,9.71,1.64,14.56,2.51,3.22.57,5,2,4.34,5.81C288.92,210.51,289.4,213.24,289.47,215.89Z" transform="translate(-1.9 -1.01)"/><path class="cls-12" d="M121.07,288.53c-.36-.93-1.1-1.89-1-2.78.75-9.28-5.05-15.86-9.28-23.11a12,12,0,0,1-.8-2.35,85.34,85.34,0,0,1,6.37,6.54c2.74,3.44,5.73,4.16,7.07.85,2.52-6.24,6.95-12,5.91-19.37-.46-3.25,1.05-5.89,4.41-4.92,6.78,1.94,6-1,4.08-5.3-.46-1.06-.22-2.59-.91-3.36a62.75,62.75,0,0,0-5.44-5l-1.16,1.37c.6.74,1.62,1.43,1.74,2.25.25,1.83.68,4.93-.08,5.33-1.69.86-4.11.58-6.14.23-.34-.06-.77-3.16-.16-4.36,2.07-4.13-.16-5.33-3.38-7.11-3.54-1.94-6.57-4.88-9.55-7.68-.61-.57,0-2.44.06-3.71,1.08.17,2.34,0,3.21.56,3.3,2,6.36,4.36,9.72,6.2,3,1.65,6.3,2.8,9.47,4.16l5.11-.95,13.06-3.14,1,3.1a32.57,32.57,0,0,1-.19,5.33,29.12,29.12,0,0,1-1.79,4.81c-4.64,6.75-6.86,15.21-14.15,20.11-5.05,4.9-3.16,13.17-8.64,17.89a1.63,1.63,0,0,0-.24,1.43c.91,2.68,3.22,5.76,2.52,7.87s-4.34,3.39-6.69,5Z" transform="translate(-1.9 -1.01)"/><path class="cls-13" d="M173.51,51.43a42.2,42.2,0,0,1-1.68-5.92c-.41-2.91,0-6-.7-8.8-.75-3.15.31-4.45,3.11-3.59,3.35,1,6.38,1.68,9.62,4.67,4.38,4.05,3.13,8,4.81,12.1,0-2.86,0-5.73,0-8.59,0-4.94,1.16-5.61,5.7-3.84,4.17,1.62,8.37,3.21,12.66,4.45,1.22.36,2.8-.54,4.22-.87-1-1.17-1.76-3-3-3.38-3.34-1-6.05-2.2-5.44-6.42,4.56,3.72,6.76,3.51,10-1,2.76,8.13,5.81,16.18,8.13,24.44,1,3.72.63,7.86.89,11.82-7.74-2.65-16.51-3.91-18.43-14.73-2,7.62-1.94,7.5-9.27,5.31C187.32,55.07,180.39,53.32,173.51,51.43Z" transform="translate(-1.9 -1.01)"/><path class="cls-14" d="M46.4,190.55c6.22-1.23,12.42-2.6,18.66-3.67,5.23-.89,6,.25,4.9,5.48-.68,3.08-1,6.24-1.47,9.37-4.67,2.54-10.14,4.26-13.81,7.84-4.13,4-7.31,8.89-13.36,10.34-5,2.19-9.95,4.52-15,6.5-1.48.57-3.7.76-4.94,0-2-1.15-3-2.88-1.74-5.87.88-2.18.54-6.4-1-7.7-3.71-3.19-7.44-7.47-13.41-6.14.29-1.65.58-3.3.88-4.94l3.9-3.23c2.33.29,4.64.72,7,.83a22.55,22.55,0,0,0,4.28-.57Zm-.83,24.14a18.6,18.6,0,0,0,3.85-2.27q6.81-6.42,13.34-13.14c.65-.66,1.18-2.37.8-2.89a5,5,0,0,0-3.25-1.85c-.59-.06-2,1.56-1.9,2.36.19,2.93-1.48,3.15-3.71,3.4-5,.54-9.93,1.57-14.93,1.92-3.42.23-7.38.63-10.23-.78-4.67-2.31-4.85,1.42-6,3.49-1.6,2.78-.6,4.74,2.71,5.52.89.21,1.67,1.23,2.31,2a5.85,5.85,0,0,1,.66,1.94c.62-.47,1.21-1,1.86-1.39.85-.53,1.86-1.54,2.6-1.39C37.46,212.45,41.21,213.55,45.57,214.69Z" transform="translate(-1.9 -1.01)"/><path class="cls-15" d="M46.51,288.48l-23.23-.94c1.69-1.81,3.46-3.55,5.06-5.45a59.39,59.39,0,0,0,5-6.62,3.08,3.08,0,0,0-.75-2.86c-2.63-2-5.48-3.66-8.25-5.45-4.11-2.31-4.51-5.78-3.08-9.82,2.36-3,5.1-5.69,7-8.93,1.6-2.79,6.29-5.29,2.15-9.5L28.29,237l10.05-10c2.13.75,5.61-3.23,6.46,1.57A34.24,34.24,0,0,1,45.32,239C43.81,250,42.08,260.9,40,271.73c-1,5.12-2.65,9.81,3.63,12.81C44.9,285.16,45.55,287.13,46.51,288.48Z" transform="translate(-1.9 -1.01)"/><path class="cls-6" d="M74.64,122.09c.67,1.09,1.69,2.11,1.92,3.28.33,1.7.09,3.5.7,5.72,3-8.76,9.48-8.07,16.21-7.08,1.69.25,3.54-.44,5.29-.78,2.38-.46,4.73-1,7.09-1.52s4.75-1.1,7.12-1.65c1.28-.13,2.58-.19,3.85-.43.76-.14,2-.93,2.11-.77,3.84,5.3,9.42,2.52,14.23,3.18-.33,1-.67,2-1,3.06-1.34.83-3,1.38-3.95,2.54-2.17,2.7-3.69,3.24-5.32-.41-1.14-2.57-2.92-2.21-3.86,0-.71,1.7-.61,3.77-.75,5.68-.15,2.06-.17,4.13-.25,6.19-1,3.2-1.9,6.44-3.06,9.58-1.08,2.93-1.72,7.3-3.84,8.28-4,1.87-3.45,4.49-3,7.35.25,1.75,1.31,3.39,2,5.08l-9.15,7.16c-1-2.7-2.07-5.41-3.1-8.12.71-1.3,1.92-2.58,2-3.93.15-2.23,0-6.33-.75-6.5-4.73-1.06-9.66-1.26-14.53-1.74-2.21-3.68-4.2-7.51-6.71-11-1.51-2.09-3.79-3.64-5.76-5.38-1.47-1.29-3-2.51-4.51-3.76,1.45-2.5,3-4.94,4.31-7.51C73,126.55,73.74,124.29,74.64,122.09Zm6,10c-3.47,10.21-1.08,16.54,8.13,21.56,5.58,2.76,11.28,2.42,17,.65a12,12,0,0,0,6.29-9.57c.91-7.85-3.76-13.1-9.55-15.47-6.05-2.48-13.47-4.34-19.87.79Z" transform="translate(-1.9 -1.01)"/><path class="cls-16" d="M200.77,18.11c.29,5.71-2.88,8.57-7.86,10.67-4.19,1.76-8,3.1-12.77,2.23s-7.6-3.21-8.29-8c-.21-1.49-.47-3-.82-5.14-.85,1-1.16,1.24-1.22,1.5-.51,2.17-.33,5.66-1.57,6.27-3.8,1.86-8.78-.65-10.27-4.46a23.4,23.4,0,0,1-1.48-5.81c-.66-5.9-.29-6.13,5.37-5.08a12.94,12.94,0,0,0,3.67-.37Q165,7,164.5,4.1c4.95,1.67,10,3,14.81,5.07,5.38,2.29,9.68,7.14,16.49,6C197.25,14.91,199.1,17.06,200.77,18.11Z" transform="translate(-1.9 -1.01)"/><path class="cls-17" d="M173.51,51.43c6.88,1.89,13.81,3.64,20.64,5.68,7.33,2.19,7.29,2.31,9.27-5.31,1.92,10.82,10.69,12.08,18.43,14.73q-1.46,6.3-2.89,12.62c-.3,1.3-1.12,2.77-.78,3.87,1.73,5.65,1.12,10.41-3.17,15-.86.91,1.22,4.59,2,7l-3.12,3.9-.32,1q-1.35,2-2.69,4l-2-1.88q-1-2.52-2-5l-2-7.15c-.21-2.67-.76-5.11,3.25-5.93,3.7-.77,4.16-3.86,2.77-7.15,1.38-2.06,3.15-4,4.05-6.22a33.4,33.4,0,0,0,2.48-9.75c.07-.83-3-1.91-4.7-2.88A13.7,13.7,0,0,0,210,66.42c-1.72-.53-3.5-.84-5.26-1.24l3,5.5-7.93-3.18-2.19.07a21.39,21.39,0,0,0-4.22-1.06c-3.48-.18-6.81.18-7.3-5-.14-1.51-3.07-3.13-5-4-2.36-1.07-5-1.41-7.6-2.07Z" transform="translate(-1.9 -1.01)"/><path class="cls-18" d="M46.4,190.55l-25.15,8.27c-2.54-.47-3.08-1.66-1.5-3.8,2.58-3.51,4.69-7.47,7.73-10.51,4.09-4.09,5-8.83,4.69-14.16,1.75-2.63,3.4-5.34,5.27-7.89C40,159,41,155.4,39.33,151.27l1.89-1.2a26.82,26.82,0,0,1,1.48,4.55q1.32,9.48,2.33,19c.36,3.35.41,6.73.66,10.1C45.87,186,46.16,188.27,46.4,190.55Z" transform="translate(-1.9 -1.01)"/><path class="cls-18" d="M259.24,253.19c.15,1.78-.1,3.72.55,5.3,1,2.49,2.38,6.44,4.09,6.72,3.68.61,6.83-1.84,8-6.24.47,1.47.85,2.66,1.6,5l1.81-6.41c.79,3.4,1.25,5.4,2.05,8.81.65-2.74,1-4.11,1.3-5.48l.94.09c.06,1,.1,2.09.18,3.14.15,2-.9,4.52,2.67,4.67.39,0,1,1.65,1,2.57.43,5.65.73,11.32,1.08,17l-2.07.09c-.74-4.85-2.14-9.15-6.91-11.86-1.29-.74-1.63-3.4-2.11-5.26a34.75,34.75,0,0,1-.52-5.24c-1.52,3-2.07,6.07-3.86,7.16-6.63,4.05-12.8,8.43-16.88,15.23h-1c.65-7.76.74-15.63,2.17-23.25C254.2,261,257.22,257.2,259.24,253.19Z" transform="translate(-1.9 -1.01)"/><path class="cls-19" d="M138.22,256.26c7.29-4.9,9.51-13.36,14.15-20.11l4.87,1.18-6,4.71c-2.46,3.06-3,6.11-.62,9.62,1.83,2.71,3.16,5.76,4.72,8.65a35.88,35.88,0,0,1-1.93,3.5c-5.12,7.31-4.95,9,1.18,15.43,2.77,2.91,5.23,6.1,7.83,9.16l-20.13,0c-2.34-4.52-2.21-8.84,1.93-12.12s2.85-5.8-.53-8.31C139.76,265.05,136.72,261.73,138.22,256.26Z" transform="translate(-1.9 -1.01)"/><path class="cls-20" d="M204.75,267.34c-1.12,4.63-2.15,9.29-3.38,13.89-1.32,4.91-4.71,7.29-9.74,7.32-3.33,0-6.67-.11-10-.17.24-1.64,0-3.66.8-4.86,3.21-4.53,5.57-9.2,4.43-15.29l2.33,2.18c.43-.66,1.24-1.32,1.24-2,0-8.11,6.25-9.35,12-11.11l2.31,4C204.78,263.33,204.76,265.33,204.75,267.34Z" transform="translate(-1.9 -1.01)"/><path class="cls-21" d="M210.83,113.87q1.33-2,2.69-4c.1-.34.21-.69.32-1L217,105c4.79-.17,4.86,3.31,4.23,6.34-.92,4.44-1.26,8.65,1,12.77-2.93,7.15-5.65,14.39-8.88,21.4-1.63,3.53-3,8.1-8.62,7.07l-2-4.19.09-8.11c3.72-.45,6.49-2.32,6.85-6.15C210.27,127.37,210.45,120.61,210.83,113.87Z" transform="translate(-1.9 -1.01)"/><path class="cls-10" d="M24.36,267.16c2.77,1.79,5.62,3.47,8.25,5.45a3.08,3.08,0,0,1,.75,2.86,59.39,59.39,0,0,1-5,6.62c-1.6,1.9-3.37,3.64-5.06,5.45-5.16.31-10.31.79-15.46.75-.92,0-2.41-2.09-2.62-3.38-.39-2.45,0-5,0-7.54,1.47-1,3.44-1.74,4.34-3.14,2.38-3.76,4.86-5,8.77-2.05,3.17,2.38,5,1.22,5.43-2.61A15.83,15.83,0,0,1,24.36,267.16Z" transform="translate(-1.9 -1.01)"/><path class="cls-22" d="M171.48,254.28l2,2c-6.08,1.46-6.56,2.48-3.65,8.05.53,1,1.32,1.92,1.94,2.92,3.39,5.44,5.58,11,1.87,17.26-.57,1,0,2.55,0,3.85l-3,0c-1-2.24-1.84-4.56-3-6.72-3.65-6.83-7.42-13.6-11.14-20.4,1.15-.84,4.39-.7,1.3-3.45-.87-.76-.94-3.09-.49-4.4.26-.74,2.36-.74,3.55-1.27,1.9-.84,3.73-1.84,5.59-2.77Z" transform="translate(-1.9 -1.01)"/><path class="cls-23" d="M204.75,267.34c0-2,0-4,0-6l11.14-2c0,.32,0,.64,0,1a50,50,0,0,0,3,5.87,33.61,33.61,0,0,0,5,6c3.58,3.26,7.42,6.24,11.15,9.34l5.06,7c-6.13.61-12.46.64-17.66-2.74-3.19-2.08-5.1-6.11-7.64-9.21a30.74,30.74,0,0,0-2.9-2.92c-.52-.48-1.66-.9-1.63-1.26C210.7,268.08,207.32,268.18,204.75,267.34Z" transform="translate(-1.9 -1.01)"/><path class="cls-24" d="M30.39,238.91c4.14,4.21-.55,6.71-2.15,9.5-1.86,3.24-4.6,6-7,8.93l-6.05.84c-7.06-5.26-7.75-7.73-4.34-15.68,3.95-9.2,3.68-10.43-3.74-16.94-.62-.56-1.29-1.07-1.93-1.6l0-1.88,10.94,6c0,.31-.05.63-.07,1,.84,2.63,1.34,5.42,2.58,7.85C21.77,243.07,24.66,243.45,30.39,238.91Z" transform="translate(-1.9 -1.01)"/><path class="cls-25" d="M73.65,86.79c-3.46-.81-6.8-1.67-9.13,2.44-.55,1-2.62,1.07-4,1.57-1-2.19-2.17-4.34-3-6.6-2.39-6.52-4.82-19.57,2-26.73a60.9,60.9,0,0,1,.5,6.44c-.07,2.91-.86,6.12,4.05,4.68.39-.11,1,.67,1.58,1l-.44,4.69,1,.32q2.27-5.11,4.54-10.22a10.58,10.58,0,0,1,.14,1.48c-.19,4.53-4.47,9.81,2.44,13,.17.08-.08.94-.06,1.43C73.38,82.51,73.52,84.65,73.65,86.79Z" transform="translate(-1.9 -1.01)"/><path class="cls-26" d="M138.22,256.26c-1.5,5.47,1.54,8.79,5.48,11.74,3.38,2.51,4.68,5,.53,8.31s-4.27,7.6-1.93,12.12l-17.13.05c2.35-1.64,6-2.85,6.69-5s-1.61-5.19-2.52-7.87a1.63,1.63,0,0,1,.24-1.43C135.06,269.43,133.17,261.16,138.22,256.26Z" transform="translate(-1.9 -1.01)"/><path class="cls-27" d="M252.21,288.48c4.08-6.8,10.25-11.18,16.88-15.23,1.79-1.09,2.34-4.21,3.86-7.16a34.75,34.75,0,0,0,.52,5.24c.48,1.86.82,4.52,2.11,5.26,4.77,2.71,6.17,7,6.91,11.86-7-.44-14-1.08-20.94-1.24C258.45,287.14,255.32,288,252.21,288.48Z" transform="translate(-1.9 -1.01)"/><path class="cls-28" d="M16.07,229.08c0-.32,0-.64.07-1-1.24-2.67-2.84-5.25-3.63-8.05-1.09-3.89-3.43-5.82-7.29-6.23v-7.11c6-1.33,9.7,3,13.41,6.14,1.52,1.3,1.86,5.52,1,7.7-1.21,3-.26,4.72,1.74,5.87,1.24.73,3.46.54,4.94,0,5.08-2,10-4.31,15-6.5l5.24.09c-1.17.62-2.27,1.6-3.51,1.81-8.46,1.43-12.92,7.47-16.8,14.25Z" transform="translate(-1.9 -1.01)"/><path class="cls-29" d="M202.48,257.32c-5.8,1.76-12,3-12,11.11,0,.66-.81,1.32-1.24,2l-2.33-2.18c1.14,6.09-1.22,10.76-4.43,15.29-.85,1.2-.56,3.22-.8,4.86h-4c.56-2.74.78-5.61,1.77-8.2,1.34-3.52,3.59-6.49.42-10.47-3-3.73-1.63-5.58,3.88-6.41a72,72,0,0,0,7.17-3.49c7-4.32,6.93-4.39,2.79-11.62l3.1-3,4,7.1Z" transform="translate(-1.9 -1.01)"/><path class="cls-30" d="M156.41,261.25c3.72,6.8,7.49,13.57,11.14,20.4,1.16,2.16,2,4.48,3,6.72l-8.12,0c-2.6-3.06-5.06-6.25-7.83-9.16-6.13-6.47-6.3-8.12-1.18-15.43a35.88,35.88,0,0,0,1.93-3.5Z" transform="translate(-1.9 -1.01)"/><path class="cls-31" d="M46.51,288.48c-1-1.35-1.61-3.32-2.91-3.94-6.28-3-4.62-7.69-3.63-12.81C42.08,260.9,43.81,250,45.32,239a34.24,34.24,0,0,0-.52-10.48c-.85-4.8-4.33-.82-6.46-1.57,3.42-1.7,6-6.51,10.86-3-.31,8.17-.45,16.35-1,24.5-.31,4.62-1.25,9.2-1.91,13.79-1.24,3.38-2.44,6.78-3.74,10.14-1.59,4.09,2.08,9.49,6.89,10.05h0l2,6Z" transform="translate(-1.9 -1.01)"/><path class="cls-32" d="M259.24,253.19c-2,4-5,7.82-5.83,12.05-1.43,7.62-1.52,15.49-2.17,23.25-4.31.6-5.85-.7-4.38-5.28,1-3.09.92-6.52,1.32-9.8,2.15-12,7.41-22.78,13.72-33,3.21-5.18,7.64-9.6,11.51-14.36-.43,2-.39,4.3-1.39,6-3,5.11-6.52,9.94-9.69,15A64.91,64.91,0,0,0,259.24,253.19Z" transform="translate(-1.9 -1.01)"/><path class="cls-14" d="M183.65,263.29c-5.51.83-6.85,2.68-3.88,6.41,3.17,4,.92,6.95-.42,10.47-1,2.59-1.21,5.46-1.77,8.2l-4,0c0-1.3-.54-2.89,0-3.85,3.71-6.29,1.52-11.82-1.87-17.26-.62-1-1.41-1.89-1.94-2.92-2.91-5.57-2.43-6.59,3.65-8.05l6,3.09,1.15,1Z" transform="translate(-1.9 -1.01)"/><path class="cls-33" d="M5.22,224c.64.53,1.31,1,1.93,1.6,7.42,6.51,7.69,7.74,3.74,16.94-3.41,7.95-2.72,10.42,4.34,15.68l-4.1.1-4.12,2c-.66-1.32-1.89-2.64-1.9-4C5,245.55,5.15,234.75,5.22,224Z" transform="translate(-1.9 -1.01)"/><path class="cls-34" d="M32.17,170.35c.27,5.33-.6,10.07-4.69,14.16-3,3-5.15,7-7.73,10.51-1.58,2.14-1,3.33,1.5,3.8a22.55,22.55,0,0,1-4.28.57c-2.33-.11-4.64-.54-7-.83l8.17-16.1,3-1.86c1.81-.94,4-1.54,5.33-2.92C28.67,175.52,30.31,172.82,32.17,170.35Z" transform="translate(-1.9 -1.01)"/><path class="cls-35" d="M11.13,258.28l4.1-.1,6.05-.84c-1.43,4-1,7.51,3.08,9.82a15.83,15.83,0,0,0-.63,2.41c-.42,3.83-2.26,5-5.43,2.61-3.91-2.93-6.39-1.71-8.77,2.05-.9,1.4-2.87,2.12-4.34,3.14,1.16-3.38,2.44-6.73,3.42-10.17a26.7,26.7,0,0,0,.47-5.09Zm2,1.71a5.91,5.91,0,0,0-.67,1.41c0,.23.27.51.42.76.31-.25.8-.47.87-.78S13.45,260.67,13.13,260Z" transform="translate(-1.9 -1.01)"/><path class="cls-2" d="M65.64,69.62c-.53-.36-1.19-1.14-1.58-1C59.15,70,59.94,66.82,60,63.91a60.9,60.9,0,0,0-.5-6.44q4-5,8-10h4.19a21.49,21.49,0,0,1,1.83,3.61c.25.86.24,2.49-.25,2.77-4.34,2.55-4.18,7.41-6,11.23A41.69,41.69,0,0,0,65.64,69.62Z" transform="translate(-1.9 -1.01)"/><path class="cls-36" d="M60.54,91.72q-.54,6.89-1.06,13.72H56.76a17.15,17.15,0,0,0,3,2.77,23.68,23.68,0,0,0,5.5,2.23c2.95.76,4.52,2.36,4.24,5.5-4.76-1.67-10.42-2.27-14.08-5.29C50.14,106.28,53.09,97.08,60.54,91.72Z" transform="translate(-1.9 -1.01)"/><path class="cls-25" d="M18.17,182.46,10,198.56l-3.9,3.23c-.16-5.1-.66-10.23-.34-15.3C5.93,183.6,14.94,180.94,18.17,182.46Z" transform="translate(-1.9 -1.01)"/><path class="cls-37" d="M240.16,288.46l-5.06-7,1.9-4,10.3-12.61.88.22a82.51,82.51,0,0,0-2.7,9.11c-.5,2.66-.27,5.45-.36,8.19Z" transform="translate(-1.9 -1.01)"/><path class="cls-38" d="M32.17,170.35c-1.86,2.47-3.5,5.17-5.67,7.33-1.37,1.38-3.52,2-5.33,2.92.66-1.82,1-3.85,2-5.43,5.27-8,10.73-15.94,16.12-23.9,1.7,4.13.63,7.74-1.89,11.19C35.57,165,33.92,167.72,32.17,170.35Z" transform="translate(-1.9 -1.01)"/><path class="cls-39" d="M51.5,288.41l-2-6,2.09-4.68c.09.05.32.09.37.21.95,2.11,1.87,4.24,2.8,6.36.68-2.52,1.9-5,1.93-7.55.06-4.54-.6-9.09-1-13.64l1.69-.22a12.36,12.36,0,0,1,.57,2.83,12,12,0,0,0,3.15,9.08c-3.34,2.31-2.56,5.8-2.59,9.05,0,1.51,0,3,0,4.53Z" transform="translate(-1.9 -1.01)"/><path class="cls-40" d="M71.67,47.45H67.48c1.29-2.81,2.26-5.82,4-8.36s4.12-4.62,6.22-6.91A53,53,0,0,1,76.21,40c-.83,2.47-3.16,5,2,4.81.23,0,.78.85.68,1.09-.31.7-.84,1.8-1.34,1.83A53,53,0,0,1,71.67,47.45Z" transform="translate(-1.9 -1.01)"/><path class="cls-41" d="M289.42,233.94l-2.3-1.46c-1.65,3-3.3,6.07-5.31,9.75V225.44c.81,1.77,1.16,2.55,1.76,3.88.6-1.55,1.07-2.78,1.8-4.65.71,1.54,1.11,2.38,1.41,3l2.66-5.69C289.43,226,289.42,230,289.42,233.94Z" transform="translate(-1.9 -1.01)"/><path class="cls-10" d="M212.83,30.27c-3.24,4.48-5.44,4.69-10,1q2-5.61,4.07-11.23Q209.86,25.14,212.83,30.27Z" transform="translate(-1.9 -1.01)"/><path class="cls-42" d="M5.22,213.84c3.86.41,6.2,2.34,7.29,6.23.79,2.8,2.39,5.38,3.63,8.05l-10.94-6Q5.22,218,5.22,213.84Z" transform="translate(-1.9 -1.01)"/><path class="cls-39" d="M70.61,280.53c0,2.61,0,5.21,0,7.81H63.47q-.45-6.48-.89-12.95l.75-.27c.45,1,.9,2,1.52,3.36.65-1.15,1.19-2.1,1.72-3.05C68.22,276.89,65.28,282,70.61,280.53Z" transform="translate(-1.9 -1.01)"/><path class="cls-43" d="M225.83,167.69c0,.65-.36,1.61-.05,1.89,3.67,3.35.22,4.44-1.83,6l.05-.05h-2.11l2.07-8.09Z" transform="translate(-1.9 -1.01)"/><path class="cls-44" d="M11.13,258.28l-2.05,3.83-2.15.76L7,260.31Z" transform="translate(-1.9 -1.01)"/><path class="cls-45" d="M121.06,99.87c-12.86.69-25.72,1.46-38.59,2-4.47.2-9,0-13.44-.13-2.88-.09-6.1-3.87-5.53-6.59.11-.5,1.58-1,2.41-1a36.2,36.2,0,0,1,4.71.63c3.42.07,6.86-.12,10.24.28,3.11.37,5.34.46,5.28-3.68,0-.89,1.61-2.64,2.3-2.56a43.82,43.82,0,0,1,7.82,2c2.14.69,4.18,2.27,6.3,2.34,5.49.19,11-.24,16.5-.42,7.57-.61,15.14-1.55,22.72-1.64,3.09,0,6.13,2.08,9.3,2.67,6.36,1.21,12.78,2.13,19.21,3,1.36.17,2.83-.6,4.25-.93l3,1c-1.84,1-3.57,2.51-5.52,2.84-9.51,1.61-19.07,3.28-28.76,1.22Z" transform="translate(-1.9 -1.01)"/><path class="cls-46" d="M173.54,55.44c2.55.66,5.24,1,7.6,2.07,2,.89,4.89,2.51,5,4,.49,5.16,3.82,4.8,7.3,5a21.39,21.39,0,0,1,4.22,1.06L195.64,72l-4.56-2.48c-.48,1.61-1.09,3.2-1.44,4.85-1.06,5.09,4.21,6.13,6.09,9.35l4,1c-1,2.83-2.34,5.3-6.11,4.07a77.8,77.8,0,0,0-8.85-3.16c-.85-.21-2.12,1.36-3.19,2.11-5.32.46-10.31-.24-14.33-4.21l.18-.94c.69-2.09,1.39-4.19,2.08-6.29.51-2.87.6-5.91,1.63-8.59s.22-3.94-1.7-5.26c-.88-2.17-1.77-4.33-2.6-6.37Z" transform="translate(-1.9 -1.01)"/><path class="cls-2" d="M73.65,86.79c-.13-2.14-.27-4.28-.38-6.42,0-.49.23-1.35.06-1.43-6.91-3.24-2.63-8.52-2.44-13a10.58,10.58,0,0,0-.14-1.48c.92,1.92,2.59,3.86,2.57,5.77,0,2.38-1.34,4.72,2.28,5.33,4.5.76,8.87-1.16,8.8-4.2-.05-2.5,0-4.16,3-4.6.56-.08,1-2.15,1.18-3.35.26-1.59-.17-3.38.39-4.82,2.18-5.53,2.24-5.44,6.72-1.62,1,.83,2.48,1,3.47,1.81,1.32,1.09,2.87,2.31,3.44,3.81.91,2.42,1.11,5.11,1.6,7.68s-.31,4.09-3.18,4.51-5.45,1.28-8.17,2c-4.17-.57-3.08,3.08-4.06,5.06A32,32,0,0,0,84,79.55c-2.28-.65-4.67-.91-7-1.33.65,1.41,1.29,2.82,2,4.22a12.17,12.17,0,0,1,.74,1.31c.9,2.81,2.84,7.92,2.46,8.11-4.07,1.93-6.16-1.53-8.52-4.07C73.64,87.46,73.65,87.13,73.65,86.79Z" transform="translate(-1.9 -1.01)"/><path class="cls-3" d="M73.64,87.79c2.36,2.54,4.45,6,8.52,4.07.38-.19-1.56-5.3-2.46-8.11A12.17,12.17,0,0,0,79,82.44c-.67-1.4-1.31-2.81-2-4.22,2.34.42,4.73.68,7,1.33a32,32,0,0,1,4.77,2.19c3.49.1,7,0,10.46.38A7.74,7.74,0,0,1,103.63,84c1.24,1.21,1.81,3.08,3.15,5.53V83.05l1.1-.28c.37,1.2.78,2.39,1.1,3.6.58,2.21,1.07,3.85,4.27,3.57,1.84-.16,3.87,1.83,5.81,2.86-5.5.18-11,.61-16.5.42-2.12-.07-4.16-1.65-6.3-2.34a43.82,43.82,0,0,0-7.82-2c-.69-.08-2.32,1.67-2.3,2.56.06,4.14-2.17,4-5.28,3.68-3.38-.4-6.82-.21-10.24-.28a12.69,12.69,0,0,1-1.47-2c-.62-1.22-1.08-2.51-1.61-3.78a19.15,19.15,0,0,0,3.63,0A9.28,9.28,0,0,0,73.64,87.79Z" transform="translate(-1.9 -1.01)"/><path class="cls-47" d="M181.61,87.77c1.07-.75,2.34-2.32,3.19-2.11a78.64,78.64,0,0,1,8.86,3.16c.26,6.76,3.24,8.67,9,5.27,2.44-1.44,4.17-4.07,6.22-6.16l1.93-1.21c1.39,3.29.93,6.38-2.77,7.15-4,.82-3.46,3.26-3.25,5.93-8.68-3.81-15.72-.86-16.38,7.12-2-5.22-4.1-10.39-10.88-10.08l-3-1Q178.08,91.81,181.61,87.77Z" transform="translate(-1.9 -1.01)"/><path class="cls-3" d="M127.48,74.5c.3-.9.3-1.6.61-1.78,4.11-2.32,7.64-4.68,4.71-10.43-.34-.68,2.55-3,3.94-4.58.73,1.22,1.51,2.41,2.17,3.67a8,8,0,0,1,.54,1.92c2.23,9.9,2.1,10.08-7.44,10.84Z" transform="translate(-1.9 -1.01)"/><path class="cls-48" d="M169.47,62.48c1.92,1.32,2.7,2.68,1.7,5.26s-1.12,5.72-1.63,8.6c-1,1.17-2,2.33-3,3.5l0-.38Z" transform="translate(-1.9 -1.01)"/><path class="cls-49" d="M167.46,82.62l-.18.94-.81-4.1,0,.38C166.81,80.77,167.13,81.7,167.46,82.62Z" transform="translate(-1.9 -1.01)"/><path class="cls-5" d="M135.18,227c-3.17-1.36-6.46-2.51-9.47-4.16-3.36-1.84-6.42-4.23-9.72-6.2-.87-.52-2.13-.39-3.21-.56,0,1.27-.67,3.14-.06,3.71,3,2.8,6,5.74,9.55,7.68,3.22,1.78,5.45,3,3.38,7.11-.61,1.2-.18,4.3.16,4.36,2,.35,4.45.63,6.14-.23.76-.4.33-3.5.08-5.33-.12-.82-1.14-1.51-1.74-2.25l1.16-1.37a62.75,62.75,0,0,1,5.44,5c.69.77.45,2.3.91,3.36,1.9,4.31,2.7,7.24-4.08,5.3-3.36-1-4.87,1.67-4.41,4.92,1,7.39-3.39,13.13-5.91,19.37-1.34,3.31-4.33,2.59-7.07-.85a85.34,85.34,0,0,0-6.37-6.54c0-.35,0-.71,0-1.06,4.88-3.57,9.64-11.51,9.67-16.11-.16,0-.36,0-.47.07-.38.31-.74.65-1.11,1-3,2.53-4.81,8.63-10.33,3.2-.29-.27-1.75.65-2.67,1l-4.18-11.29c-1.24-11.72-2.53-23.44-3.69-35.18a69.16,69.16,0,0,1,0-7.48c2.19,1.27,4.62,2.28,6.51,3.91s3.27,3,5.23.35l16.1,2.1a18.57,18.57,0,0,0,3.33,1c4.12.43,8.26.67,12.38,1.12.65.07,1.21.89,1.82,1.35l-1.34.64L121,209.81c-4.94,1.52-1.81,3.72-.19,5.17C125.47,219.13,130.37,223,135.18,227Z" transform="translate(-1.9 -1.01)"/><path class="cls-50" d="M109,198.68c-2,2.66-3.36,1.27-5.23-.35s-4.32-2.64-6.51-3.91a69.16,69.16,0,0,0,0,7.48c1.16,11.74,2.45,23.46,3.69,35.18-4.34-9.74-8.65-19.32-6.7-30.63,1.38-8-2.42-10.57-10.2-8.1-1.74.55-3.53.94-5.3,1.4,3.35-3,6.53-6.23,10.12-8.91,2.39-1.78,2.82-3.14.58-5.07-1.9-1.62-3.93-3.09-5.82-4.72a19.36,19.36,0,0,1-2-2.43c.93-.62,1.78-1.55,2.8-1.79,3.14-.75,6-.85,8.66,2,4.73,4.9,10,9.29,15,13.9C108.31,194.69,108.65,196.68,109,198.68Z" transform="translate(-1.9 -1.01)"/><path class="cls-10" d="M49.2,224c-4.88-3.48-7.44,1.33-10.86,3L28.29,237l-2-1c3.88-6.78,8.34-12.82,16.8-14.25,1.24-.21,2.34-1.19,3.51-1.81,2.23-1.4,4.51-2.73,6.68-4.22,4.78-3.28,9.51-6.65,14.25-10a4.9,4.9,0,0,1,.54,0c-1.66,7-8.52,9.14-12.87,13.62-1.34,1.39-2.47,3-3.69,4.5Z" transform="translate(-1.9 -1.01)"/><path class="cls-51" d="M105.07,248.37c.92-.36,2.38-1.28,2.67-1,5.52,5.43,7.36-.67,10.33-3.2.37-.32.73-.66,1.11-1,.11-.08.31-.05.47-.07,0,4.6-4.79,12.54-9.67,16.11Z" transform="translate(-1.9 -1.01)"/><path class="cls-7" d="M100.94,176.58l9.15-7.16c1.06,1.46,1.91,3.19,3.27,4.26.6.46,3.19-.23,3.29-.72,1-5.18,1.74-10.42,2.54-15.65l6-1.83a96.28,96.28,0,0,0-1.91,10.31c-.68,8.25,3.46,11.43,10.84,8.63l3.09-1.9,2.11,1.21c-4.71,2.35-8,7.12-6.09,11,1,1.92,5.52,2.06,8.47,3a5.66,5.66,0,0,0,1.49.06l8.11.95c0,.25,0,.5.08.76l-26.26-.84L122.35,184c2.17-.74,4.32-1.52,6.5-2.21,1.07-.34,2.19-.54,3.29-.8-.89-1.41-1.47-3.34-2.74-4.09-1.46-.85-3.88-.13-5.28-1-4.13-2.66-4.52-.77-5.29,3-.71,3.42.36,8.77-5.82,8.9l-1.86-.18C104.12,187.26,101.16,183.2,100.94,176.58Z" transform="translate(-1.9 -1.01)"/><path class="cls-50" d="M111.15,187.54l1.86.18,12.11.93,26.26.84c3.23.56,6.62.7,9.65,1.79,2.66,1,1.22,2-.63,2.45l-5-1-14,3.12c-2.81,0-5.63,0-8.44,0-7.88-.06-16,1.09-23-4C108.9,190,107.55,188,111.15,187.54Z" transform="translate(-1.9 -1.01)"/><path class="cls-48" d="M84.57,156.29c4.87.48,9.8.68,14.53,1.74.74.17.9,4.27.75,6.5-.09,1.35-1.3,2.63-2,3.93-1,.44-2.64.58-3.06,1.36-2.92,5.41-4.13,3-5.56-.91-.91-2.48-2.63-4.65-3.61-7.11A28.54,28.54,0,0,1,84.57,156.29Z" transform="translate(-1.9 -1.01)"/><path class="cls-52" d="M109.93,191.79c7,5.13,15.08,4,23,4,2.81,0,5.63,0,8.44,0l-2.09.89c-5.05.19-10.54-1.19-14.15,4l-16.1-2.1c-.34-2-.68-4-1-6Z" transform="translate(-1.9 -1.01)"/><path class="cls-53" d="M67.49,205.8c-4.74,3.33-9.47,6.7-14.25,10-2.17,1.49-4.45,2.82-6.68,4.22l-5.24-.09c6-1.45,9.23-6.31,13.36-10.34,3.67-3.58,9.14-5.3,13.81-7.84C68.16,203.09,67.83,204.44,67.49,205.8Z" transform="translate(-1.9 -1.01)"/><path class="cls-2" d="M157.24,237.33l-4.87-1.18a29.12,29.12,0,0,0,1.79-4.81,32.57,32.57,0,0,0,.19-5.33c2.58-2.83,5.29-5.57,7.73-8.53,9.56-11.6,19-23.28,28.54-34.93l4.11-4c4.34-.58,3.66,1.39,2.05,4-4.62,7.39-9.63,14.58-13.68,22.28-4.67,8.85-8.46,18.15-12.63,27.25q-2.53,7.63-5.08,15.25c-1-1.44-1.92-3-3.06-4.31-1.52-1.77-3.22-3.39-4.84-5.07A4.35,4.35,0,0,1,157.24,237.33Z" transform="translate(-1.9 -1.01)"/><path class="cls-54" d="M194.73,178.57l-4.11,4c-5.56-1.79-5.43,4.76-8.89,6.14l-2.19-4.1c.94-2.14,1.82-4.29,2.83-6.39,1.35-2.82.25-4.61-2.47-5.3a11.33,11.33,0,0,0-5.68-.22c-.55.16-.33,3.07-.4,4.73,0,.66.36,1.46.1,2-1.06,2.12-2.3,4.15-3.48,6.21-1.48-1.52-3.5-2.81-4.31-4.63-1.32-3-1.84-6.28-2.7-9.45,1,1.64,2,3.29,3,4.93.92,1.46,1.85,2.91,2.78,4.37.7-1.52,2.09-3.1,2-4.54-.31-3.56-.73-6.74,3.63-8.15.46-.15.77-2.28.68-2.32a42.17,42.17,0,0,0-7.94-2.61c-.51-.09-1.35,2.5-2.27,3.68a26.67,26.67,0,0,1-3,2.89c-3.32-5.73-2.86-7.37,2.82-10.29a39.3,39.3,0,0,0,3.33-2.15c3.27,1.58,6.41,3.67,9.86,4.55,2.16.56,5.53.08,7.07-1.33a105.47,105.47,0,0,0,11-12.42c2.45-3.08,4.36-2.88,6.37.23l2,4.19c-6.38.81-5.83.85-6.34,8.14C197.91,166.7,196,172.61,194.73,178.57Z" transform="translate(-1.9 -1.01)"/><path class="cls-55" d="M180.57,260.46l-1.15-1c.32-1.11,1.16-2.37.87-3.3-2.18-7.06,2.05-12.28,4.94-17.87,4.22-8.2,8.1-16.61,12.9-24.45,3.91-6.39,9-12.08,13.5-18.08-.58,2.69-1.15,5.37-1.73,8.06-3.54,10.41-7.72,20.43-13.62,29.87-3.89,6.24-5.73,13.76-8.49,20.7Z" transform="translate(-1.9 -1.01)"/><path class="cls-55" d="M174.55,227c4.51-7.6,8.92-15.26,13.61-22.75.83-1.32,2.84-1.9,4.3-2.82a39.57,39.57,0,0,1,2.26,4.69c2.44,7.28-3.53,11.69-6.21,17.14-1.27,2.59-3.91,4.51-5.93,6.73a74.52,74.52,0,0,0,3.53-8.24c.5-1.61,0-3.52,0-5.29-1.62.89-3.53,1.49-4.8,2.74C178.88,221.61,176.79,224.39,174.55,227Z" transform="translate(-1.9 -1.01)"/><path class="cls-56" d="M174.55,227c2.24-2.62,4.33-5.4,6.79-7.8,1.27-1.25,3.18-1.85,4.8-2.74,0,1.77.47,3.68,0,5.29a74.52,74.52,0,0,1-3.53,8.24c-.33.68-.67,1.35-1,2-2.7,3.36-5.35,6.78-8.16,10a12.53,12.53,0,0,1-3,2,12.21,12.21,0,0,1-.19-3.28c.67-3.26,1.55-6.47,2.35-9.71Q173.54,229,174.55,227Z" transform="translate(-1.9 -1.01)"/><path class="cls-55" d="M172.55,231c-.8,3.24-1.68,6.45-2.35,9.71a12.21,12.21,0,0,0,.19,3.28,12.53,12.53,0,0,0,3-2c2.81-3.27,5.46-6.69,8.16-10-2.15,4.32-4.41,8.6-6.43,13-1.39,3-2.46,6.18-3.67,9.28l-5.12-4.92c-.32-.69-.64-1.37-1-2.06q2.54-7.62,5.08-15.25Z" transform="translate(-1.9 -1.01)"/><path class="cls-14" d="M224,175.56l7.71,3.19-9,8.5-.83-.55,3.3-5.35-5.24-1.78,2-4.06h0l1,1.87,1.1-1.88Z" transform="translate(-1.9 -1.01)"/><path class="cls-53" d="M70.61,280.53c-5.33,1.45-2.39-3.64-4-5.1-.49-3.27,1.75-7-2.32-9.75-.88-.58-.13-3.61-.13-5.62C71.14,265.74,72.52,272.67,70.61,280.53Z" transform="translate(-1.9 -1.01)"/><path class="cls-39" d="M49.46,282.44c-4.81-.56-8.48-6-6.89-10.05,1.3-3.36,2.5-6.76,3.74-10.14v14.47l1.17.1.42-5.16h.93Z" transform="translate(-1.9 -1.01)"/><path class="cls-37" d="M200.68,252.32l-4-7.1c-.22-5.6,3.52-9.45,6.61-13.25,2.89-3.54,7-6.12,10.46-9.15,1.5-1.3,3-4.55,4.1.35.1.44,1.92.5,2.94.74,0-.66.05-1.33.08-2a7.72,7.72,0,0,1,.11-1.87c2.34-7.44,7.85-12.16,14.06-16.26q-2.34,4.82-4.7,9.62l.93.5L253.09,190l1.12,1a79,79,0,0,0-6.91,7.28c-1,1.31-1.89,4.16-1.2,5,2.26,2.89,3.39-.23,4.78-1.57.68-.65,1.4-1.26,3.2-2.88-5.62,9.48-10.47,17.69-15.33,25.89l1.09.79,3-2.84.79.48-3,7.09,1,.93c.53-.84,1.07-1.68,1.61-2.52.18-.28.31-.67.57-.8,4.63-2.27,6-4,7.2-10.67-.78,1.05-1.61,2.06-2.32,3.16a9.54,9.54,0,0,1-2.48,3.06c1.38-4,1.45-8.65,6.85-10.37,1.69-.54,2.82-2.65,4.41-3.76a39.57,39.57,0,0,1,4.8-2.49c-3.28,4.42-6.67,8.76-9.79,13.29-1,1.44-1.25,3.39-2.32,6.47l3.94-3.52c-2.13,4.13-.55,10.45-7.73,11.55-1.72.27-2.78,4.84-3.32,8,1.14-1.3,2.27-2.61,3.4-3.91l1.13.52-2.83,9.12.58.35c.65-1.1,1.4-2.16,2-3.31,5-10.35,9.9-20.73,14.95-31.05.47-1,1.74-1.56,2.64-2.32-.05,1.06.32,2.52-.23,3.12-2.47,2.7.15,4.24,1.35,5.77,1.34,1.73,1.95,2.1-.27,4.09-3.13,2.81-5.07,7-7.52,10.53-.19.28-.3.72-.55.82-8.09,3.26-4.17,12.42-8.59,17.5-.61.72-.71,2.62-1.13,2.65-6.71.48-6.31,6.64-9.11,10.52q.39-3,.76-6l-.68-.26-3.87,9.64c-2.53,1.17-4.25,1.21-6.13-1.71-2.14-3.33-2.69-6.26-1.31-9.82.88-2.26,1.49-4.63,2.22-7l-1.25-.46q-2.19,5.66-4.39,11.3l-1-.38L225.74,252l-.91-.21q-1.7,3.66-3.38,7.34l-.69-.27c.08-1.41.16-2.81.26-4.64-2,2.37-3.54,4.22-5.1,6.07,0-.32,0-.64,0-1,2.14-5.44,4.41-10.84,6.3-16.36.34-1-.75-2.61-1.42-3.8a4.08,4.08,0,0,0-2.44.82c-4.9,4.81-9.7,9.73-14.52,14.59Z" transform="translate(-1.9 -1.01)"/><path class="cls-57" d="M235.07,203.79c-6.21,4.1-11.72,8.82-14.06,16.26a7.72,7.72,0,0,0-.11,1.87c0,.66-.06,1.33-.08,2-1-.24-2.84-.3-2.94-.74-1.06-4.9-2.6-1.65-4.1-.35-3.51,3-7.57,5.61-10.46,9.15-3.09,3.8-6.83,7.65-6.61,13.25q-1.56,1.47-3.1,3c-1.73,2.25-1.37,6.47-5.82,6.16,2.76-6.94,4.6-14.46,8.49-20.7,5.9-9.44,10.08-19.46,13.62-29.87,4.57.42,7.8-1.41,9.41-5.77,1.21-3.29,3.14-4,6.44-1.57-4,1.6-4.69,3.8-.76,6.86,1.81-3,4.17-5.76,5.21-8.95,1.12-3.45,2.32-4.21,5.68-2.87,2.23.9,4.85.83,7.41,1.21Z" transform="translate(-1.9 -1.01)"/><path class="cls-27" d="M121.06,99.87l22.2,1,.9,22.28-11-1.15c-4.81-.65-10.39,2.13-14.23-3.17-.11-.16-1.35.63-2.11.77-1.27.24-2.57.3-3.85.43,1.26-3.09,1.26-3.09-3.15-3a17.7,17.7,0,0,0,1.24-3.08,12.51,12.51,0,0,0-.07-2.86c-1.06.08-2.13.09-3.17.26-2.56.41-5.1,1-7.67,1.31C97,113,96,111.37,96.3,109.82c2.62-.82,4.41-1.75,6.25-1.88a91,91,0,0,1,11.91,0c.35,0,.55,2.5,1.9,4.28Z" transform="translate(-1.9 -1.01)"/><path class="cls-27" d="M215.92,260.25c1.56-1.85,3.12-3.7,5.1-6.07-.1,1.83-.18,3.23-.26,4.64l.69.27q1.68-3.67,3.38-7.34l.91.21-2.58,10.41,1,.38q2.19-5.65,4.39-11.3l1.25.46c-.73,2.32-1.34,4.69-2.22,7-1.38,3.56-.83,6.49,1.31,9.82,1.88,2.92,3.6,2.88,6.13,1.71L237,277.5l-1.9,4c-3.73-3.1-7.57-6.08-11.15-9.34a33.61,33.61,0,0,1-5-6A50,50,0,0,1,215.92,260.25Z" transform="translate(-1.9 -1.01)"/><path class="cls-58" d="M121,209.81l20.28-4.94q-1.54,2-3.07,3.94c-1.49,0-3.06-.32-4.45.06a36.34,36.34,0,0,0-5.31,2.37,51.16,51.16,0,0,0,4.84,6.24c.74.72,2.54.36,3.85.49,5.22,4.32,10.5,5.34,14.35,2.28a45.8,45.8,0,0,0,8.16-8,24.71,24.71,0,0,0,3.73-8.33c1.18-4.33,3.48-6.65,8.11-6.21-6.23,7.46-8.61,17.72-17.17,23.48-.49.33-.66,1.13-1,1.72l-13.06,3.14C131.18,223.82,127.43,215.22,121,209.81Z" transform="translate(-1.9 -1.01)"/><path class="cls-59" d="M153.35,222.91c.31-.59.48-1.39,1-1.72,8.56-5.76,10.94-16,17.17-23.48,1.86-2.93,3.74-5.84,5.57-8.79.87-1.41,1.65-2.89,2.48-4.33l2.19,4.1c3.46-1.38,3.33-7.93,8.89-6.14-9.51,11.65-19,23.33-28.54,34.93-2.44,3-5.15,5.7-7.73,8.53C154,225,153.68,223.94,153.35,222.91Z" transform="translate(-1.9 -1.01)"/><path class="cls-25" d="M121,209.81c6.43,5.41,10.18,14,19.29,16.24l-5.11.95c-4.81-4-9.71-7.87-14.37-12C119.19,213.53,116.06,211.33,121,209.81Z" transform="translate(-1.9 -1.01)"/><path class="cls-60" d="M45.57,214.69c-4.36-1.14-8.11-2.24-11.93-3-.74-.15-1.75.86-2.6,1.39-.65.41-1.24.92-1.86,1.39a5.85,5.85,0,0,0-.66-1.94c-.64-.81-1.42-1.83-2.31-2-3.31-.78-4.31-2.74-2.71-5.52,1.19-2.07,1.37-5.8,6-3.49,2.85,1.41,6.81,1,10.23.78,5-.35,9.94-1.38,14.93-1.92,2.23-.25,3.9-.47,3.71-3.4-.06-.8,1.31-2.42,1.9-2.36a5,5,0,0,1,3.25,1.85c.38.52-.15,2.23-.8,2.89Q56.24,206,49.42,212.42A18.6,18.6,0,0,1,45.57,214.69Z" transform="translate(-1.9 -1.01)"/><path class="cls-61" d="M26.25,236.06l2,1,2.1,1.89c-5.73,4.54-8.62,4.16-11.74-2-1.24-2.43-1.74-5.22-2.58-7.85Z" transform="translate(-1.9 -1.01)"/><path class="cls-55" d="M168.43,157.32a39.3,39.3,0,0,1-3.33,2.15c-5.68,2.92-6.14,4.56-2.82,10.29.05.2.09.4.14.6-.22,2.49-.34,5-.69,7.46a9.84,9.84,0,0,1-1.2,2.55l-8.17-7.91c-1.35-2.22-2.7-2.46-5.14-1s-5.24,1.58-7.9,2.3l-2.11-1.21c5.68-3.89,5.51-3.72.95-8.47-2.4-2.49-4.08-5.67-6.08-8.53.7-1.66,2.18-3.44,1.94-4.94-.53-3.35-1.19-7.13-3.17-9.67-2.31-3-3.58,1-5.27,2.15-1.9,1.28-3.59,4.06-6.31,1.24L118,139.13c.08-2.06.1-4.13.25-6.19.14-1.91,0-4,.75-5.68.94-2.24,2.72-2.6,3.86,0,1.63,3.65,3.15,3.11,5.32.41.93-1.16,2.61-1.71,3.95-2.54.85,6.86,6.49,6.19,11.13,7.09q-2.56,4-5.12,8.09c-2.65,4.79-2,7.52,3,13.11,8.37,8.84,21.17,7.82,27.37-2.19,3.13-5.06,2.77-6.17-2.72-8.34l-1.41-2.64c-.41-2.63,1.2-7.28-3.15-6.68-4,.54-5.65-1.52-8-3.37h11.81a5.31,5.31,0,0,0-3.16-2.3c-3.69-.68-3.93-2.27-1.56-4.81h7.09l2.61-3.8,4.45,2.83c4.7-.7,9.47-1.1,14.06-2.23,2-.48,4.43-2.11,5.15-3.85,2.47-6,6.89-8.65,13-9.06q1,2.52,2,5c-1.23,1.21-2.87,2.22-3.62,3.69-3,5.94-5.81,12-8.68,18a1.76,1.76,0,0,0-.7.37c-5.55-1.27-8,3.07-11.24,6.12-2.15,2-4.2,5.28-6.63,5.64-4.25.63-5.26,2.82-5.68,6.24l-1.9,3.26Zm9.14-28.18c-2.08,1.38-4.16,2.74-6.22,4.13-2.6,1.76-1.67,3.64.46,4.45,1.68.63,4.32.77,5.66-.14,5.83-4,11.34-8.45,17-12.74l4.8-5.32-.87-1C191.29,121.73,182.67,121.78,177.57,129.14Z" transform="translate(-1.9 -1.01)"/><path class="cls-62" d="M82.67,130c6.4-5.13,13.82-3.27,19.87-.79,5.79,2.37,10.46,7.62,9.55,15.47a12,12,0,0,1-6.29,9.57c-7-.54-12-4-14-10.8A25.1,25.1,0,0,0,82.67,130Z" transform="translate(-1.9 -1.01)"/><path class="cls-63" d="M160.41,123.06c-2.37,2.54-2.13,4.13,1.56,4.81a5.31,5.31,0,0,1,3.16,2.3H153.32l-10,2c-4.64-.9-10.28-.23-11.13-7.09.33-1,.67-2,1-3.06l11,1.14Z" transform="translate(-1.9 -1.01)"/><path class="cls-64" d="M118,139.13c.41,1.72.83,3.44,1.24,5.17q0,6.49-.08,13c-.8,5.23-1.51,10.47-2.54,15.65-.1.49-2.69,1.18-3.29.72-1.36-1.07-2.21-2.8-3.27-4.26-.7-1.69-1.76-3.33-2-5.08-.4-2.86-1-5.48,3-7.35,2.12-1,2.76-5.35,3.84-8.28C116.13,145.57,117,142.33,118,139.13Z" transform="translate(-1.9 -1.01)"/><path class="cls-65" d="M82.67,130a25.1,25.1,0,0,1,9.14,13.45c2,6.83,7,10.26,14,10.8-5.76,1.77-11.46,2.11-17-.65-.33-2.08-1-4.17-.94-6.23a17.59,17.59,0,0,0-7.19-15.33Z" transform="translate(-1.9 -1.01)"/><path class="cls-44" d="M80.63,132.08a17.59,17.59,0,0,1,7.19,15.33c-.07,2.06.61,4.15.94,6.23C79.55,148.62,77.16,142.29,80.63,132.08Z" transform="translate(-1.9 -1.01)"/><path class="cls-16" d="M160.41,123.06l-16.25.12-.9-22.28c9.69,2.06,19.25.39,28.76-1.22,1.95-.33,3.68-1.86,5.52-2.84,6.78-.31,8.86,4.86,10.88,10.08.66-8,7.7-10.93,16.38-7.12l2,7.15c-6.16.41-10.58,3-13,9.06-.72,1.74-3.19,3.37-5.15,3.85-4.59,1.13-9.36,1.53-14.06,2.23,0-.84,0-1.67-.06-2.5-.2-3.8.55-6.45,5.4-5.92,2.07.23,4.28-.71,6.79-1.19-5.27-3.19-10.94,2-15.38-2.62a.88.88,0,0,0-.79.21c-2.94,6.79-3.09-1.8-4.43-.95L161.86,114l2.9,1.77-10.48,1.69c5.32,1.45,11.58-1.6,13.22,5.63Z" transform="translate(-1.9 -1.01)"/><path class="cls-25" d="M210.82,86.72l-1.93,1.21c-.43-1.53-.84-3.06-1.3-4.58-.32-1.08-.69-2.15-1-3.22a16.3,16.3,0,0,0-3.13,1.37,41.48,41.48,0,0,0-3.66,3.25l-4-1c5.51-4.36,3.68-10.59,4.15-16.24l7.93,3.18-3-5.5c1.76.4,3.54.71,5.26,1.24a13.7,13.7,0,0,1,2.61,1.45c1.66,1,4.77,2,4.7,2.88a33.4,33.4,0,0,1-2.48,9.75C214,82.75,212.2,84.66,210.82,86.72Z" transform="translate(-1.9 -1.01)"/><path class="cls-66" d="M196.54,133.73c2.87-6,5.64-12.11,8.68-18,.75-1.47,2.39-2.48,3.62-3.69l2,1.88c-.38,6.74-.56,13.5-1.2,20.22-.36,3.83-3.13,5.7-6.85,6.15Z" transform="translate(-1.9 -1.01)"/><path class="cls-67" d="M199.88,67.5c-.47,5.65,1.36,11.88-4.15,16.24-1.88-3.22-7.15-4.26-6.09-9.35.35-1.65,1-3.24,1.44-4.85L195.64,72l2.05-4.45Z" transform="translate(-1.9 -1.01)"/><path class="cls-16" d="M213.84,108.86c-.11.34-.22.69-.32,1C213.62,109.55,213.73,109.2,213.84,108.86Z" transform="translate(-1.9 -1.01)"/><path class="cls-68" d="M165.39,247.3c.33.69.65,1.37,1,2.06-1.86.93-3.69,1.93-5.59,2.77-1.19.53-3.29.53-3.55,1.27-.45,1.31-.38,3.64.49,4.4,3.09,2.75-.15,2.61-1.3,3.45l-1.06-.94c-1.56-2.89-2.89-5.94-4.72-8.65-2.39-3.51-1.84-6.56.62-9.62.06,1.33-.28,2.86.28,3.93.75,1.43,2,3.08,3.39,3.54,1.17.39,3.71-.41,4.12-1.34.56-1.31-.28-3.23-.56-4.88s-.66-3.58-1-5.37c1.62,1.68,3.32,3.3,4.84,5.07C163.47,244.33,164.38,245.86,165.39,247.3Z" transform="translate(-1.9 -1.01)"/><path class="cls-69" d="M157.49,237.92c.33,1.79.69,3.57,1,5.37s1.12,3.57.56,4.88c-.41.93-2.95,1.73-4.12,1.34-1.4-.46-2.64-2.11-3.39-3.54-.56-1.07-.22-2.6-.28-3.93l6-4.71A4.35,4.35,0,0,0,157.49,237.92Z" transform="translate(-1.9 -1.01)"/><path class="cls-27" d="M200.68,252.32l3.17,2.22c4.82-4.86,9.62-9.78,14.52-14.59a4.08,4.08,0,0,1,2.44-.82c.67,1.19,1.76,2.78,1.42,3.8-1.89,5.52-4.16,10.92-6.3,16.36l-11.14,2-2.31-4Z" transform="translate(-1.9 -1.01)"/><path class="cls-70" d="M196.54,133.73l6.24,6.51-.09,8.11c-2-3.11-3.92-3.31-6.37-.23a105.47,105.47,0,0,1-11,12.42c-1.54,1.41-4.91,1.89-7.07,1.33-3.45-.88-6.59-3-9.86-4.55l2-2a22.68,22.68,0,0,1,4.64,1.7c6.41,4.05,9,3.9,13.3-2.18,2.25-3.19,3.51-7.1,5.22-10.69q1.14-5,2.29-10.09A1.76,1.76,0,0,1,196.54,133.73Z" transform="translate(-1.9 -1.01)"/><path class="cls-71" d="M187.79,254.34c4.45.31,4.09-3.91,5.82-6.16,4.14,7.23,4.18,7.3-2.79,11.62a72,72,0,0,1-7.17,3.49l-3.08-2.83Z" transform="translate(-1.9 -1.01)"/><path class="cls-72" d="M13.13,260c.32.68.68,1.08.62,1.39s-.56.53-.87.78c-.15-.25-.45-.53-.42-.76A5.91,5.91,0,0,1,13.13,260Z" transform="translate(-1.9 -1.01)"/><path class="cls-8" d="M224,175.51l-1.1,1.88-1-1.87Z" transform="translate(-1.9 -1.01)"/><path class="cls-17" d="M199.76,84.75a41.48,41.48,0,0,1,3.66-3.25,16.3,16.3,0,0,1,3.13-1.37c.35,1.07.72,2.14,1,3.22.46,1.52.87,3.05,1.3,4.58-2,2.09-3.78,4.72-6.22,6.16-5.77,3.4-8.75,1.49-9-5.27C197.42,90.05,198.71,87.58,199.76,84.75Z" transform="translate(-1.9 -1.01)"/><path class="cls-73" d="M167.46,82.62c-.33-.92-.65-1.85-1-2.78,1-1.17,2-2.33,3-3.5Z" transform="translate(-1.9 -1.01)"/><path class="cls-74" d="M160.53,180.37a9.84,9.84,0,0,0,1.2-2.55c.35-2.47.47-5,.69-7.46l1,1.15c.86,3.17,1.38,6.48,2.7,9.45.81,1.82,2.83,3.11,4.31,4.63,1.18-2.06,2.42-4.09,3.48-6.21.26-.51-.13-1.31-.1-2,.07-1.66-.15-4.57.4-4.73a11.33,11.33,0,0,1,5.68.22c2.72.69,3.82,2.48,2.47,5.3-1,2.1-1.89,4.25-2.83,6.39-.83,1.44-1.61,2.92-2.48,4.33-1.83,3-3.71,5.86-5.57,8.79-4.63-.44-6.93,1.88-8.11,6.21a24.71,24.71,0,0,1-3.73,8.33,45.8,45.8,0,0,1-8.16,8c-3.85,3.06-9.13,2-14.35-2.28,3.14,0,6.28.13,9.42,0a7.52,7.52,0,0,0,2.48-1.16,7,7,0,0,0-1.38-1.91c-3.11-2.09-6.29-4.08-9.45-6.1q1.53-2,3.07-3.94l1.34-.64c-.61-.46-1.17-1.28-1.82-1.35-4.12-.45-8.26-.69-12.38-1.12a18.57,18.57,0,0,1-3.33-1c3.61-5.23,9.1-3.85,14.15-4l-3.7,1.88.15,1h7.57c2.12,1.37,6.71-.36,5.94,4.74,0,.23.92.83,1.46.9,6.16.82,11.86-6,9.74-11.58,1.85-.43,3.29-1.49.63-2.45-3-1.09-6.42-1.23-9.65-1.79,0-.26-.06-.51-.08-.76.69-2.14,1.45-4,4.41-3.19C160.3,186.73,161.92,184.88,160.53,180.37Z" transform="translate(-1.9 -1.01)"/><path class="cls-75" d="M139.32,173.73c2.66-.72,5.6-1,7.9-2.3s3.79-1.19,5.14,1c.37,1.93.78,3.85,1.1,5.79.24,1.4.37,2.82.54,4.23-4.32.3-5.62,6.78-10.81,5.3a5.66,5.66,0,0,1-1.49-.06c-2.95-.9-7.52-1-8.47-3C131.29,180.85,134.61,176.08,139.32,173.73Z" transform="translate(-1.9 -1.01)"/><path class="cls-31" d="M119.19,157.31q0-6.51.08-13c2.72,2.82,4.41,0,6.31-1.24,1.69-1.13,3-5.11,5.27-2.15,2,2.54,2.64,6.32,3.17,9.67.24,1.5-1.24,3.28-1.94,4.94a8.86,8.86,0,0,1-.87-.44c-2.26-3.75-4,.37-6,.4Z" transform="translate(-1.9 -1.01)"/><path class="cls-76" d="M131.21,155.08a8.86,8.86,0,0,0,.87.44c2,2.86,3.68,6,6.08,8.53,4.56,4.75,4.73,4.58-.95,8.47l-3.09,1.9c-4.47.71-6.77-2.63-7.61-5.7-.69-2.48.92-5.7,1.86-8.48A31.79,31.79,0,0,1,131.21,155.08Z" transform="translate(-1.9 -1.01)"/><path class="cls-26" d="M125.12,188.65,113,187.72c6.18-.13,5.11-5.48,5.82-8.9.77-3.76,1.16-5.65,5.29-3,1.4.9,3.82.18,5.28,1,1.27.75,1.85,2.68,2.74,4.09-1.1.26-2.22.46-3.29.8-2.18.69-4.33,1.47-6.5,2.21Z" transform="translate(-1.9 -1.01)"/><path class="cls-77" d="M143.19,187.78c5.19,1.48,6.49-5,10.81-5.3-.17-1.41-.3-2.83-.54-4.23-.32-1.94-.73-3.86-1.1-5.79l8.17,7.91c1.39,4.51-.23,6.36-4.82,5.17-3-.77-3.72,1.05-4.41,3.19Z" transform="translate(-1.9 -1.01)"/><path class="cls-68" d="M131.21,155.08a31.79,31.79,0,0,0-2.84,5.16c-.94,2.78-2.55,6-1.86,8.48.84,3.07,3.14,6.41,7.61,5.7-7.38,2.8-11.52-.38-10.84-8.63a96.28,96.28,0,0,1,1.91-10.31C127.21,155.45,129,151.33,131.21,155.08Z" transform="translate(-1.9 -1.01)"/><path class="cls-24" d="M160.4,193.73c2.12,5.6-3.58,12.4-9.74,11.58-.54-.07-1.49-.67-1.46-.9.77-5.1-3.82-3.37-5.94-4.74a13.41,13.41,0,0,0,3.79-.39c3.36-1.38,7.95-1.35,8.32-6.55Z" transform="translate(-1.9 -1.01)"/><path class="cls-78" d="M155.37,192.73c-.37,5.2-5,5.17-8.32,6.55a13.41,13.41,0,0,1-3.79.39h-7.57l-.15-1,3.7-1.88,2.09-.89Z" transform="translate(-1.9 -1.01)"/><path class="cls-46" d="M163.43,171.51l-1-1.15c0-.2-.09-.4-.14-.6a26.67,26.67,0,0,0,3-2.89c.92-1.18,1.76-3.77,2.27-3.68a42.17,42.17,0,0,1,7.94,2.61c.09,0-.22,2.17-.68,2.32-4.36,1.41-3.94,4.59-3.63,8.15.13,1.44-1.26,3-2,4.54-.93-1.46-1.86-2.91-2.78-4.37C165.44,174.8,164.44,173.15,163.43,171.51Z" transform="translate(-1.9 -1.01)"/><path class="cls-79" d="M138.21,208.81c3.16,2,6.34,4,9.45,6.1a7,7,0,0,1,1.38,1.91,7.52,7.52,0,0,1-2.48,1.16c-3.14.12-6.28,0-9.42,0-1.31-.13-3.11.23-3.85-.49a51.16,51.16,0,0,1-4.84-6.24,36.34,36.34,0,0,1,5.31-2.37C135.15,208.49,136.72,208.8,138.21,208.81Z" transform="translate(-1.9 -1.01)"/><path class="cls-31" d="M143.29,132.19l10-2c2.33,1.85,4,3.91,8,3.37,4.35-.6,2.74,4.05,3.15,6.68-1.25.38-2.83.4-3.69,1.2-8.25,7.61-15.54,7.29-22.59-1.14Q140.72,136.23,143.29,132.19Z" transform="translate(-1.9 -1.01)"/><path class="cls-79" d="M138.17,140.28c7.05,8.43,14.34,8.75,22.59,1.14.86-.8,2.44-.82,3.69-1.2l1.41,2.64c-4,10.65-5.62,11.42-17.16,9.56-2.39-.38-5,.61-7.49,1C136.16,147.8,135.52,145.07,138.17,140.28Z" transform="translate(-1.9 -1.01)"/><path class="cls-80" d="M141.21,153.39c2.5-.36,5.1-1.35,7.49-1,11.54,1.86,13.15,1.09,17.16-9.56,5.49,2.17,5.85,3.28,2.72,8.34C162.38,161.21,149.58,162.23,141.21,153.39Z" transform="translate(-1.9 -1.01)"/><path class="cls-81" d="M195.84,134.1q-1.14,5-2.29,10.09l-2.9,1.07c-4.71-1.17-12,3.3-13,8l-5.32-1.18c.42-3.42,1.43-5.61,5.68-6.24,2.43-.36,4.48-3.6,6.63-5.64C187.81,137.17,190.29,132.83,195.84,134.1Z" transform="translate(-1.9 -1.01)"/><path class="cls-82" d="M167.5,123.06c-1.64-7.23-7.9-4.18-13.22-5.63l10.48-1.69-2.9-1.77,4.23-4.85c1.34-.85,1.49,7.74,4.43.95a.88.88,0,0,1,.79-.21c4.44,4.58,10.11-.57,15.38,2.62-2.51.48-4.72,1.42-6.79,1.19-4.85-.53-5.6,2.12-5.4,5.92.05.83,0,1.66.06,2.5l-4.45-2.83Z" transform="translate(-1.9 -1.01)"/><path class="cls-83" d="M194.44,124.84c-5.63,4.29-11.14,8.74-17,12.74-1.34.91-4,.77-5.66.14-2.13-.81-3.06-2.69-.46-4.45,2.06-1.39,4.14-2.75,6.22-4.13,2.84-.79,5.67-1.62,8.53-2.35S191.66,125.48,194.44,124.84Z" transform="translate(-1.9 -1.01)"/><path class="cls-84" d="M172.29,152.1l5.32,1.18c7.49,2.67,9.56,1.74,12.36-5.62.29-.77.45-1.6.68-2.4l2.9-1.07c-1.71,3.59-3,7.5-5.22,10.69-4.3,6.08-6.89,6.23-13.3,2.18a22.68,22.68,0,0,0-4.64-1.7Z" transform="translate(-1.9 -1.01)"/><path class="cls-85" d="M194.44,124.84c-2.78.64-5.57,1.24-8.34,2s-5.69,1.56-8.53,2.35c5.1-7.36,13.72-7.41,20.8-10.67l.87,1Z" transform="translate(-1.9 -1.01)"/></svg>