<svg id="Layer_1" data-name="Layer 1" xmlns="http://www.w3.org/2000/svg" width="280" height="350" viewBox="0 0 280 350"><defs><style>.cls-1{fill:#fea100;}.cls-2{fill:#fed58e;}.cls-3{fill:#fee3b3;}.cls-4{fill:#fefbf5;}.cls-5{fill:#feb940;}.cls-6{fill:#cb8100;}.cls-7{fill:#5f3c00;}.cls-8{fill:#945e00;}</style></defs><path class="cls-1" d="M.74,267.75Q.74,136,.67,4.28C.66,1.23.79,0,4.55,0Q140.29.22,276,0c3.71,0,3.91,1.15,3.91,4.25q-.13,112.79-.07,225.55l-45.81-16-5.12-1.71-20.84-9.33-3.18-42.89-1.83-8.93c-.19-4.15-.37-8.3-.61-12.45,0-.11-.54-.19-.84-.28L201.07,151q0-11.06-.08-22.1l.55,2.84c.11-.07.35-.16.34-.21-.24-1.2-.5-2.39-.76-3.58l-.12-3.77c.93-1.77,1.91-3.52,2.66-5.36a7.39,7.39,0,0,0-2.23-1.39,29.24,29.24,0,0,0-2.53,3.65L198,120l.07-10,.87-1.15c5.39-3.15.73,10.27,7.32,4.55,4.27-3.71-2.45-4.78-2.39-7.62l2.11-2c2.77,4,4.84,10.44,8.47,11.5,5.55,1.62.46-4.91,2.66-6.92q1.11,4.2,2.21,8.4l-.59,4a37.33,37.33,0,0,1-2.54,4.71c-2,2.72-4.16,5.29-6.27,7.93,1.24-1.86,3.52-3.74,3.49-5.58-.07-4.24-1.22-8.47-2.13-12.67,0-.21-1.9,0-2.91,0,1.08,2.1,2.56,4.11,3.12,6.34.42,1.71-.33,3.7-.56,5.57l-.94-3-1.92,4,0,0L206.8,129a29.27,29.27,0,0,0-3.17,2.59c2.27,3.56,4.77,7,7.24,10.43,1.7-2.14,4.11-4,5-6.48,1.63-4.64,2.37-9.6,3.47-14.42l1.59-4.36q-1.8-5.92-3.61-11.87l-7.09-4.2-2-2.76c1.33-13.26,1.52-26.4-4.06-38.94l-19-23-1.82-4-4-3.67.11.36.36-.11c.21-3.5.21-3.5-5.41-5.66l-9.21-1.25c-17,2.41-33.63-7.2-50.7-1.44-10.42,2.83-20,7-27,15.78l-3.9,3.09c-6.15,6-14.33,10.59-14.07,20.9l-1,17,.38.92-8.23,3-2.11,1-1.31.66-1.73,1.26L52.56,86l-5.11,4.89-.45,1,1-.31c1.55-1.8,3.1-3.59,4.64-5.39L56,84.49l1.85-1.25,1.09-.93,1.75-.24,1.21,1.28c-22.36,15.11-18,25.55,5.68,32.6L69.47,122l1,1,6.44,6.74L74.65,122c.18-1.79-4-5.18,1.78-4.92l2.8,4.23c.91,4.13,12.06,7.73.63,12.49-4.45,3.09-2,5.63.64,8.16,1.57,7.57,12.71,5.24,13.39,17.87.8,14.69,13.16,28.74,20.51,43.07a3.22,3.22,0,0,0-.18.86l-1.83,1.08-1.91-.16-3.81-1.47c2.11,6.72.49,12.53-4.26,17.58l-3.83-7.09.45-6.26,1.89-1.54.69.15-.63-.17.21-3.69c-.77.11-1.7,0-2.29.35q-18.68,12.15-37.28,24.42l-3.11,1.87,0,0-1,1,.06-.05-52.12,34ZM45.59,94l-.84,3.86.22,4.72.44-4.74L45.62,94l.45-.78ZM100.7,196.49c2.26,1,4.13,1.86,6,2.6.18.06,1-.94,1-1-1.64-1.85-3.33-3.65-5-5.46Zm-2.33-9c-.16.23-.45.48-.42.68s.33.47.52.7A3.35,3.35,0,0,0,99,188C99.06,187.88,98.62,187.64,98.37,187.47Zm-2.27-2.79,0,.43.65-.24c-.09-.11-.16-.3-.27-.32S96.24,184.63,96.1,184.68ZM78.32,131.82l-.2-.33-.26.58c.1,0,.25.12.29.08S78.27,131.93,78.32,131.82Z"/><path class="cls-2" d="M174.2,349.64H76.5c-.32-1.57-.63-3.14-1-4.7-2.7,1.52-7.85-1.15-8,4.7h-8c-7.22-16.65-14.41-33.3-21.75-49.9-.48-1.09-2.07-1.7-3.15-2.53.4,1.11.79,2.22,1.19,3.32l17.73,49.11h-15c-2-10.25-10.33-13-18.63-15.79-.67-.22-1.65.53-2.49.83,3,3.18,6.12,6.31,9.06,9.57,1.5,1.67,2.73,3.58,4.08,5.39h-7c-5.18-9.31-13.45-14.87-22.92-19v-31c2.76-1.51,7.08-1.92,4.92-6.94l.08-.08,3.92,1.74c1.28.06,1.07,6.66,4,.79.64-1.29,4.29-1.08,6.55-1.56l-4.92-7.05-.8-6.07,1.91-2,.13-.11,5.17-.95,4.94.11L32,280.93c-.17-2.79-.35-5.58-.52-8.37l7.18-6.79,1.81-2.14v0l11.24-10.67,19.71-4,34.08,32.69,1,1.07,0-.05c4.53,19.39,8.16,39.3,28,50.06a14.65,14.65,0,0,0,3.42.86c-.17-1.26,0-2.7-.56-3.74-4.48-8.17-9.2-16.21-13.64-24.4-2.81-5.16-5.28-10.5-7.9-15.76l9.42,5.89c8.5,12.34,16.94,24.72,25.55,37,1.74,2.48,2.37,7.91,7.71,3.23,4.68-4.1,2.94-7.14-.31-10.77-5.07-5.66-9.91-11.52-14.85-17.29C159.44,317.35,171.22,330.24,174.2,349.64ZM19.13,304.81a4.63,4.63,0,0,0-.5-.58s-.24.15-.36.23a5.49,5.49,0,0,0,.48.6S19,304.91,19.13,304.81Z"/><path class="cls-2" d="M98.58,213.65l3.83,7.09c.68,1.66,1.35,3.31,2,5-1.64,1-3.67,1.74-4.86,3.16-4.28,5.12,2.32.23,1.87,2l0-.05q2.67,8.26,5.32,16.53c4.83-4.67-2.83-7.93-1.38-12.35.6-1.83.35-3.94.48-5.92l4.36,5.34L121,246.77c8.84,10.28,21.78,13.33,33.27,18.94-7.92,8.05,8.95,5,5,11.24,7.62,2.3.37,26.62,18.88,12.78l0,0q1.49,10,3,20c.33.71.65,1.41,1,2.11q1.53,18.92,3,37.84h-6c-2.3-15.92-9-29.66-22.34-38.84-30.38-20.89-62-40.16-85.44-69.56l1-.59C83.44,233.91,84.71,217.64,98.58,213.65ZM89.09,235.5,93.7,233c-.63-.24-1.41-.86-1.86-.67a48.68,48.68,0,0,0-4.56,2.43Z"/><path class="cls-3" d="M185.16,349.64q-1.53-18.93-3-37.84L189,323.06c.48-.91,1.61-2.3,1.35-2.65-2.81-3.8-1.72-11.07-9.26-10.72q-1.49-10-3-20l1.44-2.88-.76-.26c-.22,1.05-.43,2.11-.65,3.16-18.51,13.84-11.26-10.48-18.88-12.78,3.93-6.26-12.94-3.19-5-11.24l12.94,5.9,4.14,1.94a2.77,2.77,0,0,0,1,.19c5.25,2.72,10.56,12.26,15.69-.13l5.3-5.83.81-1.06,1.08-2,0,.06q2.44-3.1,4.88-6.22,2.48-4.41,4.94-8.82l1.51-2c12.12,1.53,5.09,9.36,4.59,14.76-.2,2.08-3.61,4.5-3.11,5.89,2.53,7.05,5.87,13.82,8.92,20.68,5.47-6.39.25-13.37.88-20.09.64-6.95-1.86-14.14-1.68-21.19.11-4.23,2.7-8.4,4.18-12.6,2.19,3,5.26,5.68,6.39,9,2.58,7.62,4.22,15.56,6.24,23.37-.63,2.07-1.25,4.14-1.88,6.2-15.73,23-22,48.16-17,75.82Zm15-14L198,341.86l4.79-1.18-2.65-5a24.5,24.5,0,0,0-5-2c-.39-.08-1.19,2-1.8,3.06Zm-11.79-39c1.5,1.77,2.93,5,4.52,5.05,4.26.22,2.23-3.26,1.17-4.49-1.61-1.84-4.11-2.91-6.23-4.3l-.52,3c-.24,1.49-.48,3-.73,4.46Zm14.52,1.05-2.92-7.6c-1.24,1.73-3.73,3.69-3.46,5.13.66,3.46,2.61,6.68,4,10Zm-.57-31.9c-.66-.61-1.06-1-1.45-1.36-.86,1.34-1.77,2.65-2.51,4.05-.12.22.53.85.82,1.29Zm-10,45.59a25.61,25.61,0,0,0,2.09-3.13c.08-.14-1.14-1.27-1.37-1.15a10.08,10.08,0,0,0-2.51,2A24.17,24.17,0,0,0,192.3,311.38Z"/><path class="cls-3" d="M279.87,343.65c-.53,2.53,2.12,7.19-4,6-.3-2.29-.16-4.75-1-6.83-1.84-4.64-4.18-9.08-6.31-13.61-.89,4.09-2.08,8.14-2.62,12.28-.94,7.31-4.85.81-6.85,1.71-6.8,3.05-21.71-20.14-21.11,6.45h-3l2.13-33,1.74,4.82a46.1,46.1,0,0,0,1-5.62c.45-7.72.73-15.45,1.16-23.17.49-8.86,1.07-17.72,1.62-26.58q5.06,12.2,10.12,24.4c1.45,3.53,2.91,7.06,4.3,10.61.54,1.38.91,2.83,1.36,4.25,3.59-3.52,10.81-8.05,10.16-10.41-3.75-13.63-9.51-26.7-14.19-40.1-1-2.84-.34-6.25-.45-9.4,1.73,1.43,4.24,2.51,5.06,4.34C265,263,271.76,276,273,290.92c.35,4.3,1.79,8.51,2.72,12.77.43-3.77,1.25-7.54,1.17-11.3a67.1,67.1,0,0,0-1.52-14.52c-2.62-10.76-4.1-21.13,4.53-30.09v84.88C273.66,336.32,276.82,340,279.87,343.65Z"/><path class="cls-4" d="M279.87,247.78c-8.63,9-7.15,19.33-4.53,30.09a67.1,67.1,0,0,1,1.52,14.52c.08,3.76-.74,7.53-1.17,11.3-.93-4.26-2.37-8.47-2.72-12.77C271.76,276,265,263,259,249.78c-.82-1.83-3.33-2.91-5.06-4.34.11,3.15-.54,6.56.45,9.4,4.68,13.4,10.44,26.47,14.19,40.1.65,2.36-6.57,6.89-10.16,10.41-.45-1.42-.82-2.87-1.36-4.25-1.39-3.55-2.85-7.08-4.3-10.61q-5.06-12.21-10.12-24.4c-.55,8.86-1.13,17.72-1.62,26.58-.43,7.72-.71,15.45-1.16,23.17a46.1,46.1,0,0,1-1,5.62l-1.74-4.82c0-.66,0-1.33-.08-2-1.44-9.52,2.85-20.39-6.61-28q1.8-4.92,3.59-9.86c8.2-20.79,12.29-41.5-1.19-61.88l1.21-1.12,45.81,16ZM250.8,231.52l-6.29,1.58c1,.25,2.05.83,3,.71,3.27-.44,6.5-1.12,9.75-1.7Z"/><path class="cls-4" d="M14.49,280.54c.27,2,.53,4,.8,6.07-4.17,1.4-5.55-7.39-10.57-2.91l-4,1v-2l17.1-13.85L5.45,263.7l52.12-34q4.56,7,9.14,13.94l-19.09,8.12L40.47,263.6v0l-1.81,2.14-7.18,6.79-4.83,5-4.95-.1-5.16.94-.13.11C15.77,279.22,15.13,279.88,14.49,280.54Z"/><path class="cls-5" d="M66.71,243.67q-4.57-7-9.14-13.94l-.06.05,1-1,0,0,2.73.21L71.4,241.24c23.45,29.4,55.06,48.67,85.44,69.56,13.34,9.18,20,22.92,22.34,38.84h-5c-3-19.4-14.76-32.29-30.91-41.93l-18.1-12.15-9.43-5.89-9.32-7,0,.05-1-1.07L71.42,248.94l-1.72-1.36Z"/><path class="cls-2" d="M237.06,314.65c0,.66.05,1.33.08,2l-2.13,33H224c-1.3-10-3.68-20.05-3.46-30,.12-5.22,4.81-10.34,7.44-15.5,2.18,3,4.31,6.11,6.59,9.07A8.21,8.21,0,0,0,237.06,314.65Z"/><path class="cls-2" d="M238,349.64c-.6-26.59,14.31-3.4,21.11-6.45,2-.9,5.91,5.6,6.85-1.71.54-4.14,1.73-8.19,2.62-12.28,2.13,4.53,4.47,9,6.31,13.61.83,2.08.69,4.54,1,6.83Z"/><path class="cls-3" d="M237.06,314.65a8.21,8.21,0,0,1-2.45-1.46c-2.28-3-4.41-6-6.59-9.07-2.63,5.16-7.32,10.28-7.44,15.5-.22,10,2.16,20,3.46,30h-5c-3.32-22.29-3.06-43.93,11.39-63C239.91,294.26,235.62,305.13,237.06,314.65Z"/><path class="cls-5" d="M230.45,286.64c-14.45,19.07-14.71,40.71-11.39,63h-5c-5-27.66,1.25-52.81,17-75.82l1,2.93-.6.6.41.2.13-.85,2.06.08Q232.26,281.72,230.45,286.64Z"/><path class="cls-3" d="M5.45,263.7l12.39,5.18L.74,282.73v-15Z"/><path class="cls-5" d="M53.57,349.64,35.84,300.53c-.4-1.1-.79-2.21-1.19-3.32,1.08.83,2.67,1.44,3.15,2.53,7.34,16.6,14.53,33.25,21.75,49.9Z"/><path class="cls-5" d="M.74,330.66c9.47,4.11,17.74,9.67,22.92,19h-8l-14.95-12Z"/><path class="cls-3" d="M30.64,349.64c-1.35-1.81-2.58-3.72-4.08-5.39-2.94-3.26-6-6.39-9.06-9.57.84-.3,1.82-1.05,2.49-.83,8.3,2.75,16.64,5.54,18.63,15.79Z"/><path class="cls-2" d="M.74,337.65l15,12C7.21,350-2.82,352.34.74,337.65Z"/><path class="cls-2" d="M.74,284.73l4-1,2,6.17-1,2.82-.07.08L.74,295.71v-5l1.4-1-1.4-1Z"/><path class="cls-5" d="M67.53,349.64c.17-5.85,5.32-3.18,8-4.7.32,1.56.63,3.13,1,4.7Z"/><path class="cls-2" d="M279.87,343.65c-3.05-3.67-6.21-7.33,0-11Z"/><path class="cls-4" d="M.74,295.71l4.93-2.94c2.15,5-2.17,5.43-4.93,6.94Z"/><path class="cls-3" d="M.74,288.72l1.4,1-1.4,1Z"/><path class="cls-6" d="M114.4,202.85c-7.35-14.33-19.71-28.38-20.51-43.07-.68-12.63-11.82-10.3-13.39-17.87L80.35,134c4.37.09,8.85,4.8,13.08-.33l1-2.69,2.06,1h0l12.09,2.16-.18,2.27-2.68,1.42c.34,1.34.67,2.68,1,4l.31,0h.3l2.14,1.14c-1.15,7,4.55,4.13,7.36,4.83,4,1,5.69-1.4,5.58-5.27l1-2.58c3.85,0,10.2,6.38,9.92-3.95,1.77,0,4.1.78,5.14-.07s.61-3.28.83-5a3.48,3.48,0,0,0-.25-.68c-7.67-2-15.31-9.84-23,.22-1.1,1.43-3.7,1.71-5.6,2.52-1.56-7,4.53-8.71,8.47-10,6.51-2.18,13.66-2.44,20.53-3.52l.12.23c-.1,1.28-.72,3.42-.23,3.72,6.21,3.75,11.85-.61,17.76-1.53-.88,1.67-2.88,4.44-2.48,4.85,8.9,9.1,12.26,19.34,12.52,32.5.14,7-3.51,11.34-4.3,17.11l-10.51-14.15,5.4-6.16-4.44-.08L149.44,159l-4.24.69-5.72-2.62c-.12-.12-.24-.25-.37-.36l-25.45,8.06-3.18-.77a17.06,17.06,0,0,0,1.52-2.41c.17-.41-.17-1-.27-1.56l-4.31,5.8c-.92,7.74,6.13,3.9,9,6.19l-4,1.85-.2-.23.24.19c2.14,4.83,3.73,13.32,6.53,13.74,6,.9,0-6.93,2.12-7.71,6.67-2.51,13.85-3.69,20.86-5.26.35-.08,1.48,1.26,1.37,1.46-11.16,20.07,3.24,14.3,13.14,13.08-1,1.51-1.7,4.05-3,4.38C140.48,196.86,127.43,199.8,114.4,202.85Zm22.67-48.65,3-.83a8.85,8.85,0,0,0-2.78-1.33c-.82-.08-1.72.61-2.58,1Z"/><path class="cls-6" d="M167.24,271.61l-12.94-5.9c-11.49-5.61-24.43-8.66-33.27-18.94q11.37,4.68,22.73,9.34a20.89,20.89,0,0,0,4.28,1.23c.24,0,1.08-1.77,1-1.85a17.22,17.22,0,0,0-3.56-2.19c-13-5.49-26.75-9.67-34.72-22.79l-1.2-1.87c-.23.21-.68.56-.65.61.39.62.84,1.2,1.28,1.78v3.35q-2.17-2.67-4.36-5.33l-1.38-3.34c-.67-1.66-1.34-3.31-2-5,4.75-5.05,6.37-10.86,4.26-17.58l3.81,1.47c3.32,15.31,17.93,25,28.5,18.43,1.11-.69-1.15-6.79-1.84-10.38l26.72-11.22c5.64,6.17,12.87,11,11.36,21.57-1.3,9.05,16.08,8.66,11.72,20.32-.78,2.11-3.21,5.56-2.89,5.81,2.44,1.89,5.37,3.14,8.15,4.58v0c-.42,5.43-4.37,5.27-8.44,6.4s-10.21-2.92-12.32,4.07Zm-9.19-22.75c4.16,3.38,7.08,6,10.31,8.09.39.26,2.45-2,3.74-3.18-3-3-5.95-6-9.13-8.74C162.76,244.85,160.77,246.72,158.05,248.86Z"/><path class="cls-5" d="M68.47,77l1-17c3.92-3.53,7.58-7.42,11.83-10.5,8.11-5.88,8.25-5.69,6.15-9.48,1.15-1.32,2.31-2.63,3.47-4l5-2.27.66,1.52L91.75,40l-.34.83,7,1.08q-2.49,5-5,10l13.24-6h1.51l3.14.68L115.44,48l8,3.89c3.54-.81-4-7.66,3.26-6.22,6.39,1.26,12.7,2.94,19,4.74.53.15.18,2.66.73,3.84.18.38,2.79.23,2.86,0,2.36-9,8.75-10.16,17-12.74,17.1-5.33,21.71,5.37,27.35,16.34.91,1.79.31,4.36.41,6.57a37.48,37.48,0,0,1-4.9-2.11c-2.85-1.72-5.57-3.66-8.34-5.52-.15,4.42-1.08,9-.21,13.2.75,3.6,3.56,6.77,5.46,10.12a106,106,0,0,0-41.55-10.2l-3.31-.56H114.45l-5.25.6-4.71.44-2.32.53-23.88,5,2.31-2.74,1.85-.43c-.13-.2-.33-.59-.39-.57-.58.21-1.13.47-1.69.73L74.53,75l-.93.09.23.5.66-.64,3.75.9L61.85,83.35l-1.21-1.28c0-.37,0-.75,0-1.12l8.23-3,1.62-1.58ZM97.32,52.89c-1.52,1.58-3.07,3.12-4.51,4.75-.2.22.11.89.19,1.34l4.78-5.48,1.58-1.13Zm57.1,13.53-7,.83c7.15,1.57,14.29,3.15,21.45,4.66a6.67,6.67,0,0,0,2.27-.38Zm-25.09.19v.12h14.19c-6.18-.52-12.35-1.27-18.54-1.45-3.12-.09-6.27.85-9.41,1.33Zm-22.62,1.83,4.53-1.72c-.68-.21-1.41-.68-2-.57-1.85.34-3.66.91-5.49,1.39ZM90,69.37,85.21,71.2c.54.18,1.14.6,1.6.48,1.65-.42,3.26-1,4.88-1.56Zm91.53,5.13h-.71c.11.1.21.26.33.27S181.4,74.64,181.53,74.5Z"/><path class="cls-7" d="M61.85,83.35l16.39-7.46h.05l23.89-5,2.31-.53,4.71-.44,5.25-.6h26.79l3.31.56A106,106,0,0,1,186.1,80.1v0l5.07,4.39a.67.67,0,0,0,.48.55l2.26,6-2.7.13-2-.63-2,.36c-3.6,1.18-7.22,2.31-10.77,3.63-.27.11-.06,2.34,0,2.34,3.59.14,7.18.17,10.78.19l9.8,3c-3.36,1.54-3.12,6.23-11,3.73-12.06-3.84-17.72-19.26-32.65-16C136.79,91.19,120,94,103.27,97.18h-1.84c-6.18-1.82-9.92,2.29-13.92,5.76L82.68,106l-6.58,2.52L79.51,113,76.43,117c-5.82-.26-1.6,3.13-1.78,4.92l-4.2,1-1-1c.14-1.78.32-3.57.41-5.35.15-3.27-.58-3.79-2.35-.71C43.83,108.9,39.49,98.46,61.85,83.35ZM79.49,101l-3,1,.39.73L79.49,101l3-1-.39-.68ZM131.75,71c-8.81,0-11.76-.54-14.42.1-8.73,2.11-17.52,4.22-25.89,7.37-2,.74-4.21,7.16-3.23,8.3,6.35,7.35,15,6,23.54,4.88,13.44-1.71,24-8.36,32.86-18.14ZM87,97l-1.44.87c.21.3.46.87.64.85a2.27,2.27,0,0,0,1.22-.64C87.48,98,87.15,97.44,87,97Zm91.51-5.36a6.89,6.89,0,0,0-1.61-.69c-.32,0-.66.24-1,.37.25.17.48.43.74.46A11.26,11.26,0,0,0,178.47,91.63ZM92.21,96.4a3,3,0,0,0-.84-.24c-.24,0-.46.24-.69.37a2.47,2.47,0,0,0,.83.28A1.29,1.29,0,0,0,92.21,96.4Z"/><path class="cls-8" d="M87.51,103c4-3.47,7.74-7.58,13.92-5.76-.11,1.21-.22,2.42-.32,3.63l2.16-3.64c16.72-3.16,33.52-6,50.15-9.57,14.93-3.22,20.59,12.2,32.65,16,7.83,2.5,7.59-2.19,11-3.73.68-.91,1.34-1.83,2-2.75l7.15,2.81,1,2.17a3.6,3.6,0,0,1-.15.63l-1,.94-2.11,2-1.76-.73c-.88-.86-1.75-1.73-2.62-2.6l-1.14,1.3,2.89,1.54L199,108.8l-.87,1.15-4-2.36-6,1.39,0,0-7-3.83c-7.58-2-11.42,4.53-16.75,7.58-.36.21.63,2.79,1,4.26l-4.1,3L159,121.26l-1.91.54c-5.91.92-11.55,5.28-17.76,1.53-.49-.3.13-2.44.23-3.72,4.22.47,2.51-2.59,2.67-4.53l-1.65-1.79V116c-.38,1.12-.75,2.23-1.12,3.35-6.88,1.07-14,1.33-20.54,3.51-3.94,1.32-10,3-8.47,10l-1.87,1.16-12.09-2.16,8.09-3.06c-1.81-.31-3.8-1.2-5.39-.73-1.17.34-1.81,2.47-2.68,3.8l-2.06-1c-.32-1.09-.58-2.2-1-3.27-1.66-4.72-2.54-.57-2.37.41.33,1.93,1.52,3.71,2.36,5.55-4.23,5.13-8.71.42-13.07.33a2.24,2.24,0,0,0-.5-.22c11.43-4.76.28-8.36-.63-12.49l.24-.29,13.09-10.86-4,7.45c4.25-.46,10.51.66,12.34-1.69,4.84-6.18-4.29-3.57-5.44-6.53a.55.55,0,0,1-.21-.51l13-1.47c-3.24-4.81-11.58.62-13.54-6.76l-3.13,4.92Zm62.74,7-1.62-2.74q-1.68-2.53-3.34-5.07c2-.54,4-1,6-1.64,1.53-.46,3-1.08,4.52-1.63-.18-.34-.35-1-.54-1-4.22-.12-8.86-1.21-12.46.26-1.6.65-1.07,6.51-1.51,10l6.67.65,2.29,1.1c2,0,4,.19,5.93.09.37,0,.69-1,1-1.54Zm-14.92-10,0,0L133,98c-.42,1.37-1.43,3.78-1.16,3.94a31.75,31.75,0,0,0,5.6,2.08C136.76,102.66,136,101.33,135.33,100Zm-8,2.43-4.95-.45-4.82.89-4.16.1-.3-.18.29.2c-2,5.26-4.07,10.5-5.9,15.83-.1.29,1.8,1.27,2.76,1.92,1.91-3.68,3.79-7.39,5.76-11,.77-1.44,1.73-2.79,2.6-4.18.94,1.24,2.36,2.35,2.74,3.74,1,3.83,1.91,7.66,6.88,7.57a8,8,0,0,0,3.77-2c-1.39-3.16-3.05-6.2-4.67-9.27Zm19.55,13.84c-.61-1.19-1.2-2.34-1.78-3.49-.59,1-1.73,2-1.65,3A26.63,26.63,0,0,0,145,121.1Zm-7-7-1.69-2.66-2.33,2.23a8.31,8.31,0,0,0,2.12,1.72C138.38,110.68,139.12,109.83,139.92,109.26Zm17.65,8.47a11.8,11.8,0,0,0-1.55-1.22,9.24,9.24,0,0,0-1.8,2c-.08.12.88,1.13.95,1.09A25.29,25.29,0,0,0,157.57,117.73Z"/><path class="cls-2" d="M191.66,85a.67.67,0,0,1-.48-.55l-5.07-4.39v0c-1.9-3.35-4.71-6.52-5.46-10.12-.87-4.2.06-8.78.21-13.2,2.77,1.86,5.49,3.8,8.34,5.52a37.48,37.48,0,0,0,4.9,2.11c-.1-2.21.5-4.78-.41-6.57-5.64-11-10.25-21.67-27.35-16.34-8.29,2.58-14.68,3.77-17,12.74-.07.28-2.68.43-2.86,0-.55-1.18-.2-3.69-.73-3.84-6.27-1.8-12.58-3.48-19-4.74-7.31-1.44.28,5.41-3.26,6.22-.94-4.88-4.49-4.37-8-3.89l-4.12-1.46c3.84-2.09,13.29,2.05,9.47-8.55,6.27-1.64.86-3.31,0-5,4.39-9-3.3-5-6.41-6l.27-1.11c8.79-14.22,15.87,10,25.75,1.16,2.75-2.46,11.21,1.53,17.06,2.48,1.87.31.85,8.29,5.09,1.94.59-.89.48-2.26.69-3.4,2.21.46,4.7.46,6.57,1.53s3,3.18,4.46,4.84q1-4.21,1.91-8.43l3.57,2.51-.37.11-.11-.36c0,.52,0,1,0,1.55-.26,1.64-.53,3.28-.72,4.93,0,.11.7.29,1.07.43l.55-3.19L183.3,32l1.82,4a37.62,37.62,0,0,0,19,23c5.58,12.54,5.39,25.68,4.06,38.94a.49.49,0,0,0-.31.42L198,94.15,198,94.1l-.88-.09-3-1.35,3.2-.69,4.51-3.64ZM180.88,65.51l4.26,3.25c.55-.74,1.72-1.85,1.54-2.14a12.21,12.21,0,0,0-3-3.26C183.51,63.22,182.29,64.42,180.88,65.51Zm-50-33,4.36-.74a40.16,40.16,0,0,0-6-1.58c-1-.13-2.2.69-3.3,1.09Zm36,2.7a10.36,10.36,0,0,0,1.34-2.54c.07-.41-.51-.94-.8-1.42-.61.41-1.6.74-1.73,1.27S166.23,33.88,166.88,35.24Zm-37.76-.43c-1-.43-1.45-.78-1.78-.71a6.85,6.85,0,0,0-1.56.77c.33.16.67.47,1,.46A15.65,15.65,0,0,0,129.12,34.81Z"/><path class="cls-5" d="M206.52,247.77l-1.51,2-12.82,3.93v0c1.34-4.17,3.28-8.26,3.92-12.54,4.32-28.67,8-57.38-2.79-85.54-1.6-4.17-6.73-8.87-5.74-11.82,5.11-15.22-35.47-8-14.27-29.95l6-4.75,8.86-.13,0,0,5.63,9.52,1.34-2.47,3,3.93.86,1.09,2.1,3.1.12,3.77c-.05.31-.1.63-.13,1q0,11.06.08,22.1v0l1.27,1.5-1,7.36c1.61,15.38,3,30.77,4.9,46.13,1.27,10.64-3.41,21.76,2.62,32-.17,1-.34,2.09-.5,3.14l-1.52.64,1.22,1.09Z"/><path class="cls-4" d="M206.52,247.77l1.56-5,.3-1.73c.16-1.05.33-2.1.5-3.14s.55-2.06.82-3.09l1.38-8L210.93,216l5.9-.55-8.43-5.91-.3-6.79,20.84,9.33,2,2.76c9.24,17.27,7.8,34.95,2,52.79-2-7.81-3.66-15.75-6.24-23.37-1.13-3.35-4.2-6-6.39-9-1.48,4.2-4.07,8.37-4.18,12.6-.18,7.05,2.32,14.24,1.68,21.19-.63,6.72,4.59,13.7-.88,20.09-3-6.86-6.39-13.63-8.92-20.68-.5-1.39,2.91-3.81,3.11-5.89C211.61,257.13,218.64,249.3,206.52,247.77Z"/><path class="cls-8" d="M137.14,212.68c.69,3.59,3,9.69,1.84,10.38-10.57,6.6-25.18-3.12-28.5-18.43l1.91.16,1.83-1.08a3.22,3.22,0,0,1,.18-.86c13-3,26.08-6,39-9.3,1.29-.33,2-2.87,3-4.38l6.84-.26L168,192l-3.67,8c-1.91-7.75-6.11,3-8.62-1a4.5,4.5,0,0,0-2.91,1.08c-7.15,8.86-17.34,7.71-27,8.14-1.46.07-2.92-2-4.56-2.72s-6.14-3.2-3.58,1.62c1.67,3.15,7,4.75,11.08,6.06C131.26,214,134.34,212.91,137.14,212.68Z"/><path class="cls-3" d="M176.2,26.11q-.94,4.22-1.91,8.43c-1.46-1.66-2.65-3.8-4.46-4.84s-4.36-1.07-6.57-1.53c-.21,1.14-.1,2.51-.69,3.4-4.24,6.35-3.22-1.63-5.09-1.94-5.85-.95-14.31-4.94-17.06-2.48-9.88,8.84-17-15.38-25.75-1.16-.1-.63-.2-1.26-.31-1.88l.08-3.84c17.07-5.76,33.71,3.85,50.7,1.44l8.06,2.36,0,0,1.94,1,0,0,.95.95Z"/><path class="cls-4" d="M71.4,241.24,61.24,229c.13-.69.25-1.38.38-2.08q18.63-12.22,37.28-24.42c.59-.39,1.52-.24,2.29-.35l-.21,3.69-.07,0L99,207.39c-10.7,9.63-23.83,17.3-26.64,33.26Z"/><path class="cls-2" d="M208.1,202.74q.15,3.39.29,6.8.66,12.65,1.31,25.29c-.27,1-.55,2.06-.82,3.09-6-10.23-1.35-21.35-2.62-32-1.85-15.36-3.29-30.75-4.9-46.13l3.56,0Z"/><path class="cls-3" d="M72.39,240.65C75.2,224.69,88.33,217,99,207.39l-.45,6.26C84.71,217.64,83.44,233.91,72.39,240.65Z"/><path class="cls-5" d="M219.3,121.16c-1.1,4.82-1.84,9.78-3.47,14.42-.85,2.44-3.26,4.34-5,6.48-2.47-3.45-5-6.87-7.24-10.43A29.27,29.27,0,0,1,206.8,129l1.33-1.09,0,0,2.86-1c.23-1.87,1-3.86.56-5.57-.56-2.23-2-4.24-3.12-6.34,1,0,2.87-.18,2.91,0,.91,4.2,2.06,8.43,2.13,12.67,0,1.84-2.25,3.72-3.49,5.58,2.11-2.64,4.29-5.21,6.27-7.93a37.33,37.33,0,0,0,2.54-4.71Z"/><path class="cls-2" d="M87.44,40.06c2.1,3.79,2,3.6-6.15,9.48-4.25,3.08-7.91,7-11.83,10.5-.26-10.31,7.92-14.92,14.07-20.9Z"/><path class="cls-2" d="M114.44,20.27c0,1.28,0,2.56-.08,3.84l-4.14,3.7a3.81,3.81,0,0,1-.93.27L95.88,33.84l-5,2.27-3.48-.06C94.4,27.3,104,23.1,114.44,20.27Z"/><path class="cls-3" d="M204.1,59a37.62,37.62,0,0,1-19-23Z"/><path class="cls-5" d="M206,103.72l1-.94,8.78,2.54,1.38,3c-2.21,2,2.88,8.55-2.67,6.93C210.86,114.16,208.79,107.74,206,103.72Z"/><path class="cls-6" d="M199,108.8l2.3-3.56q.42-.13.87-.24l1.76.73c-.06,2.84,6.66,3.91,2.39,7.62C199.71,119.07,204.37,105.65,199,108.8Z"/><path class="cls-6" d="M198,120l-3-3.93-1-8.44,4,2.36Q198.07,114.95,198,120Z"/><path class="cls-3" d="M215.78,105.32,207,102.78a3.6,3.6,0,0,0,.15-.63l1-1.14,2.08-.28,7.09,4.2Z"/><path class="cls-6" d="M201.07,151l.57-12.78c.3.09.84.17.84.28.24,4.15.42,8.3.61,12.45l0,0-2.05.05Z"/><path class="cls-6" d="M201,124.15l-2.1-3.1a29.24,29.24,0,0,1,2.53-3.65,7.39,7.39,0,0,1,2.23,1.39C202.91,120.63,201.93,122.38,201,124.15Z"/><path class="cls-5" d="M100.7,196.49l2-3.82c1.69,1.81,3.38,3.61,5,5.46,0,0-.78,1-1,1C104.83,198.35,103,197.49,100.7,196.49Z"/><path class="cls-8" d="M70.45,123l4.2-1q1.13,3.9,2.24,7.79Z"/><path class="cls-2" d="M215.78,105.32l1.5-.39q1.82,5.94,3.61,11.87l-1.53-.1q-1.1-4.2-2.21-8.4C216.7,107.3,216.24,106.31,215.78,105.32Z"/><path class="cls-3" d="M204.92,159.85l-3.57,0,1-7.36.78-1.55,0,0Z"/><path class="cls-5" d="M79.86,133.75a2.24,2.24,0,0,1,.5.22q.06,4,.14,7.94C77.91,139.38,75.41,136.84,79.86,133.75Z"/><path class="cls-8" d="M67.53,116c1.77-3.08,2.5-2.56,2.35.71-.09,1.78-.27,3.57-.41,5.35Q68.49,119,67.53,116Z"/><path class="cls-2" d="M173.2,24.07l-8.06-2.36L174.35,23Z"/><path class="cls-8" d="M76.43,117,79.51,113q0,4,0,8l-.24.29Q77.83,119.14,76.43,117Z"/><path class="cls-3" d="M87.43,36.05l3.48.06c-1.16,1.32-2.32,2.63-3.47,4l-3.91-.92Z"/><path class="cls-3" d="M173.2,24.07,174.35,23c5.62,2.16,5.62,2.16,5.41,5.66l-3.56-2.51,0-.06-.95-.95,0,0-1.94-1Z"/><path class="cls-2" d="M52.69,86.15c-1.54,1.8-3.09,3.59-4.64,5.39a5.51,5.51,0,0,0-.6-.68L52.56,86Z"/><path class="cls-3" d="M183.3,32l-3.16.05-.9-2.17c0-.52,0-1,0-1.55Z"/><path class="cls-3" d="M230.93,214.83l-2-2.76,5.12,1.71-1.21,1.12Z"/><path class="cls-6" d="M211,127l-2.86,1,1.92-4Z"/><path class="cls-5" d="M219.36,116.7l1.53.1-1.59,4.36-.53-.44C219,119.38,219.17,118,219.36,116.7Z"/><path class="cls-5" d="M45.41,97.82,45,102.56c-.07-1.57-.15-3.15-.22-4.72C45,97.84,45.19,97.84,45.41,97.82Z"/><path class="cls-6" d="M201,128.87c0-.32.08-.64.13-1,.26,1.19.52,2.38.76,3.58,0,.05-.23.14-.34.21Z"/><path class="cls-5" d="M210.19,100.73l-2.08.28-.11-1.2-.15-1.42a.49.49,0,0,1,.31-.42Z"/><path class="cls-2" d="M68.47,77l2-.66L68.85,78Z"/><path class="cls-2" d="M61.62,226.91c-.13.7-.25,1.39-.38,2.08l-2.73-.21Z"/><path class="cls-2" d="M52.56,86l2.91-2.08.48.61-3.26,1.65Z"/><path class="cls-5" d="M98.38,187.46c.24.18.68.42.65.51a3.35,3.35,0,0,1-.56.88c-.19-.23-.49-.45-.52-.7S98.21,187.7,98.38,187.46Z"/><path class="cls-5" d="M96.1,184.68c.14-.05.29-.16.41-.13s.18.21.27.32l-.65.24Z"/><path class="cls-6" d="M114.22,203.71l-1.83,1.08Z"/><path class="cls-2" d="M45.41,97.82c-.22,0-.44,0-.66,0L45.59,94l0,0Z"/><path class="cls-2" d="M60.62,81c0,.37,0,.75,0,1.12l-1.75.24L58.51,82Z"/><path class="cls-8" d="M78.32,131.82c0,.11-.08.26-.17.33s-.19-.05-.29-.08l.26-.58Z"/><path class="cls-6" d="M208.13,128,206.8,129Z"/><path class="cls-2" d="M57.8,83.24,56,84.49l-.48-.6,1.73-1.26Z"/><path class="cls-2" d="M58.55,228.75l-1,1Z"/><path class="cls-2" d="M45.59,94l.48-.75-.45.78Z"/><path class="cls-5" d="M101,205.83l.63.17-.69-.15Z"/><path class="cls-2" d="M48.05,91.54l-1,.31.45-1A5.51,5.51,0,0,1,48.05,91.54Z"/><path class="cls-2" d="M58.89,82.31l-1.09.93-.6-.61L58.51,82Z"/><path class="cls-3" d="M106.44,282.65l9.32,7c2.63,5.26,5.1,10.6,7.91,15.76,4.44,8.19,9.16,16.23,13.64,24.4.56,1,.39,2.48.56,3.74a14.65,14.65,0,0,1-3.42-.86C114.6,322,111,302,106.44,282.65Z"/><path class="cls-3" d="M125.19,295.56l18.1,12.15c4.94,5.77,9.78,11.63,14.85,17.29,3.25,3.63,5,6.67.31,10.77-5.34,4.68-6-.75-7.71-3.23C142.13,320.28,133.69,307.9,125.19,295.56Z"/><path class="cls-3" d="M6.73,289.87l-2-6.17c5-4.48,6.4,4.31,10.57,2.91l4.92,7.05c-2.26.48-5.91.27-6.55,1.56-2.93,5.87-2.72-.73-4-.79Q8.2,292.15,6.73,289.87Z"/><path class="cls-3" d="M40.47,263.6l7.15-11.81,3.85.82.24.32Z"/><path class="cls-3" d="M69.7,247.58l1.72,1.36-19.71,4-.24-.32Z"/><path class="cls-3" d="M26.64,277.6l4.83-5c.17,2.79.35,5.58.52,8.37Z"/><path class="cls-4" d="M6.73,289.87q1.47,2.28,2.93,4.56l-3.92-1.74Z"/><path class="cls-3" d="M16.53,278.44l5.16-.94Z"/><path class="cls-3" d="M19.12,304.82c-.13.09-.34.26-.37.24a5.49,5.49,0,0,1-.48-.6c.12-.08.33-.26.36-.23A3.49,3.49,0,0,1,19.12,304.82Z"/><path class="cls-3" d="M14.49,280.54c.64-.66,1.28-1.32,1.91-2Z"/><path class="cls-3" d="M38.65,265.77l1.81-2.14Z"/><path class="cls-3" d="M105.5,281.63l1,1.07Z"/><path class="cls-8" d="M110.75,230.51c8,13.12,21.75,17.3,34.71,22.79a17.22,17.22,0,0,1,3.56,2.19c.1.08-.74,1.89-1,1.85a20.89,20.89,0,0,1-4.28-1.23q-11.38-4.63-22.73-9.34l-10.86-12.39V231C110.35,230.85,110.55,230.68,110.75,230.51Z"/><path class="cls-5" d="M104.43,225.71l1.38,3.34c-.13,2,.12,4.08-.48,5.91-1.45,4.42,6.21,7.68,1.38,12.35q-2.65-8.26-5.32-16.53l.17-.26-.12.31c.45-1.73-6.15,3.16-1.87-2C100.76,227.45,102.79,226.74,104.43,225.71Z"/><path class="cls-4" d="M181.13,309.69c7.54-.35,6.45,6.92,9.26,10.72.26.35-.87,1.74-1.35,2.65l-6.93-11.26C181.78,311.1,181.46,310.4,181.13,309.69Z"/><path class="cls-5" d="M89.09,235.5l-1.81-.72a48.68,48.68,0,0,1,4.56-2.43c.45-.19,1.23.43,1.86.67Z"/><path class="cls-2" d="M230.93,214.83l1.92.07c13.48,20.38,9.39,41.09,1.19,61.88L232,276.7l.06.05-1-2.93c.63-2.06,1.25-4.13,1.88-6.2C238.73,249.78,240.17,232.1,230.93,214.83Z"/><path class="cls-1" d="M192.19,253.72,205,249.79l-4.94,8.83-3.83.32-1.12-2c-.47.35-.93.71-1.39,1.07l2.52,1.68q-.52,2.58-1.06,5.17l0-.06-1.08,2-.81,1.06c-3.44,1-3.73-7.88-8.51-2.74l-.17-.24-2.49,1,.08,0-10.17-1a1.63,1.63,0,0,0-.63-.54c2.11-7,8.23-2.95,12.32-4.08S191.77,259.15,192.19,253.72Z"/><path class="cls-6" d="M184.81,265c4.78-5.14,5.07,3.7,8.51,2.74l-5.3,5.83-11.87-1.87Z"/><path class="cls-1" d="M176.15,271.74,188,273.61c-5.13,12.39-10.44,2.85-15.69.13l3.88-2.05Z"/><path class="cls-4" d="M202.87,297.69l-2.33,7.53c-1.44-3.32-3.39-6.54-4-10-.27-1.44,2.22-3.4,3.46-5.13Z"/><path class="cls-5" d="M184.81,265l-8.66,6.7.06-.05-4.83,1.86-4.14-1.94,4.19-7.42a1.75,1.75,0,0,1,.63.55c2.57,8.4,6.74,1.09,10.17,1l-.08,0,2.49-1Z"/><path class="cls-2" d="M187.29,295.89l.52-3c2.12,1.39,4.62,2.46,6.23,4.3,1.06,1.23,3.09,4.71-1.17,4.49-1.59-.08-3-3.28-4.52-5.05Z"/><path class="cls-4" d="M200.14,335.63l-6.81,1.09c.61-1.08,1.41-3.14,1.8-3.06a24.5,24.5,0,0,1,5,2Z"/><path class="cls-4" d="M200.09,335.68l2.65,5L198,341.86l2.19-6.23Z"/><path class="cls-4" d="M202.3,265.79l-3.14,4c-.29-.44-.94-1.07-.82-1.29.74-1.4,1.65-2.71,2.51-4.05Z"/><path class="cls-6" d="M196.24,258.94l3.83-.32-4.88,6.21q.54-2.59,1.06-5.17A3.47,3.47,0,0,1,196.24,258.94Z"/><path class="cls-4" d="M192.3,311.38a24.17,24.17,0,0,1-1.79-2.32,10.08,10.08,0,0,1,2.51-2c.23-.12,1.45,1,1.37,1.15A25.61,25.61,0,0,1,192.3,311.38Z"/><path class="cls-6" d="M171.38,273.55l4.83-1.86-3.88,2.05A2.77,2.77,0,0,1,171.38,273.55Z"/><path class="cls-4" d="M187.29,295.89l1.06.75-1.79,3.71Z"/><path class="cls-2" d="M178.2,289.73c.22-1.05.43-2.11.65-3.16l.76.26-1.44,2.88Z"/><path class="cls-6" d="M194.13,266.72l1.08-2Z"/><path class="cls-3" d="M250.8,231.52l6.46.59c-3.25.58-6.48,1.26-9.75,1.7-.95.12-2-.46-3-.71Z"/><path class="cls-2" d="M69.7,247.58l-18.23,5-3.85-.82,19.09-8.12Z"/><path class="cls-2" d="M232,276.7l-.13.85-.41-.2.6-.6Z"/><path class="cls-1" d="M163.27,188.91l-6.84.26c-9.9,1.22-24.3,7-13.14-13.08.11-.2-1-1.54-1.37-1.46-7,1.57-14.19,2.75-20.86,5.26-2.08.78,3.92,8.61-2.12,7.71-2.8-.42-4.39-8.91-6.53-13.74l0,0,4-1.85,6.48.32,10.49-3.76,2.5-.16,8.55-4.27,7.87-2.07,10.51,14.15c.79-5.77,4.44-10.08,4.3-17.11-.26-13.16-3.62-23.4-12.52-32.5-.4-.41,1.6-3.18,2.48-4.85l1.91-.54,2.31-1.28,4.1-3,8-3.13c-21.2,22,19.38,14.73,14.27,30-1,2.95,4.14,7.65,5.74,11.82,10.77,28.16,7.11,56.87,2.79,85.54-.64,4.28-2.58,8.37-3.92,12.54-2.78-1.44-5.71-2.69-8.15-4.58-.32-.25,2.11-3.7,2.89-5.81,4.36-11.66-13-11.27-11.72-20.32,1.51-10.58-5.72-15.4-11.36-21.57l.49-1.47,3.67-8-1.92-5.78Z"/><path class="cls-7" d="M135.85,168.45l-2.5.16-10.49,3.76-6.48-.32c-2.83-2.29-9.88,1.55-9-6.19l3.06-1.83,3.18.77c1.28.24,2.65.9,3.84.67,9.25-1.82,18.47-3.81,27.7-5.75l4.24-.69,3.79-3.16,4.44.08-5.4,6.16-7.87,2.07Z"/><path class="cls-1" d="M108.52,134.09l1.87-1.16c1.9-.81,4.5-1.09,5.6-2.52,7.71-10.06,15.35-2.2,23-.22l-9.58,1.33a3.86,3.86,0,0,0,.22.74c3.2-.44,6.41-.91,9.61-1.39-.22,1.74.16,4.21-.83,5s-3.37.11-5.14.06l-9.92,4-1,2.58-5-1.73-9-4.4Z"/><path class="cls-1" d="M145.2,159.72c-9.23,1.94-18.45,3.93-27.7,5.75-1.19.23-2.56-.43-3.84-.67l25.46-8.06a1.42,1.42,0,0,0-.25.37c0,.06.17.24.23.23a1.42,1.42,0,0,0,.38-.24Z"/><path class="cls-8" d="M117.33,140.76l5,1.73c.11,3.87-1.63,6.25-5.58,5.27-2.81-.7-8.51,2.16-7.36-4.83l-.51-2.29Z"/><path class="cls-8" d="M123.37,139.91l9.92-4C133.57,146.29,127.22,140,123.37,139.91Z"/><path class="cls-5" d="M117.33,140.76l-8.43-.12-1.63,1.15H107l-.31,0c-.33-1.34-.67-2.68-1-4l2.68-1.42Z"/><path class="cls-5" d="M139.26,130.87c-3.2.48-6.41.95-9.61,1.39a3.86,3.86,0,0,1-.22-.74l9.58-1.33A3.48,3.48,0,0,1,139.26,130.87Z"/><path class="cls-1" d="M93.43,133.64c-.84-1.84-2-3.62-2.36-5.55-.17-1,.71-5.13,2.37-.41.37,1.07.63,2.18,1,3.27Z"/><path class="cls-1" d="M110.48,164l-3.06,1.83,4.31-5.8c.1.53.44,1.15.27,1.56A17.06,17.06,0,0,1,110.48,164Z"/><path class="cls-1" d="M137.07,154.2l-2.38-1.2c.86-.35,1.76-1,2.58-1a8.85,8.85,0,0,1,2.78,1.33Z"/><path class="cls-8" d="M153.23,155.87,149.44,159Z"/><path class="cls-1" d="M142.18,115.08c-.16,1.94,1.55,5-2.67,4.53l-.12-.23c.38-1.11.75-2.22,1.13-3.34Z"/><path class="cls-1" d="M105.66,137.78c.33,1.34.67,2.68,1,4C106.33,140.46,106,139.12,105.66,137.78Z"/><path class="cls-1" d="M107.27,141.79l1.63-1.15.51,2.29Z"/><polygon class="cls-1" points="112.41 173.86 112.17 173.67 112.37 173.9 112.41 173.86"/><path class="cls-7" d="M164.35,200l-.49,1.47-26.72,11.22c-2.8.23-5.88,1.29-8.34.49-4-1.31-9.41-2.91-11.08-6.06-2.56-4.82,1.85-2.35,3.58-1.62s3.1,2.79,4.56,2.72c9.62-.43,19.81.72,27-8.14a4.5,4.5,0,0,1,2.91-1.08C158.24,203,162.44,192.24,164.35,200Z"/><path class="cls-1" d="M158.05,248.86c2.72-2.14,4.71-4,4.92-3.83,3.18,2.75,6.13,5.78,9.13,8.74-1.29,1.13-3.35,3.44-3.74,3.18C165.13,254.83,162.21,252.24,158.05,248.86Z"/><path class="cls-8" d="M110.17,231c-.44-.58-.89-1.16-1.28-1.78,0-.05.42-.4.65-.61l1.2,1.87C110.55,230.68,110.35,230.85,110.17,231Z"/><path class="cls-4" d="M95.88,33.84l13.41-5.76.93,1.77,0,0-1.76,1.22-1.18.59-2.88,3.82,5-.44,6-2c3.31-4.32-2.51-2.95-3-4.87l1.93-1.14c3.11.93,10.8-3.07,6.41,6,0,1.65,0,3.3,0,5,3.82,10.6-5.63,6.46-9.47,8.55l-3.14-.67L113.34,43c0-1.62,0-3.23-.08-4.85l-10.73,2.49,1,4.33,3.11.9-13.24,6q2.47-5,5-10c0-.56,0-1.13,0-1.69-.8-1.55,3.79-5.11-1.81-4.86Z"/><path class="cls-3" d="M154.42,66.42l16.68,5.11a6.67,6.67,0,0,1-2.27.38c-7.16-1.51-14.3-3.09-21.45-4.66Z"/><path class="cls-3" d="M129.33,66.61H115.58c3.14-.48,6.29-1.42,9.41-1.33,6.19.18,12.36.93,18.54,1.45H129.34Z"/><path class="cls-6" d="M113.34,43l-5.16,2.89-1.51,0-3.11-.9L112,40.22Z"/><path class="cls-1" d="M96.54,35.36c5.6-.25,1,3.31,1.81,4.85L91.75,40Z"/><path class="cls-6" d="M115.44,48c3.54-.48,7.09-1,8,3.89Z"/><path class="cls-6" d="M97.78,53.5,93,59c-.08-.45-.39-1.12-.19-1.34,1.44-1.63,3-3.17,4.51-4.75C97.48,53.09,97.63,53.3,97.78,53.5Z"/><path class="cls-6" d="M91.75,40l6.6.21c0,.57,0,1.14,0,1.7l-7-1.08Z"/><path class="cls-2" d="M106.71,68.44l-3-.9c1.83-.48,3.64-1.05,5.49-1.39.62-.11,1.35.36,2,.57Z"/><path class="cls-2" d="M90,69.37l1.69.75c-1.62.54-3.23,1.14-4.88,1.56-.46.12-1.06-.3-1.6-.48Z"/><path class="cls-2" d="M74.53,75l5.84-2.17.23.27-2.31,2.74h-.05L74.49,75Z"/><path class="cls-8" d="M114.45,69.34l-5.25.6Z"/><path class="cls-8" d="M144.55,69.9l-3.31-.56Z"/><path class="cls-2" d="M80.37,72.87c.56-.26,1.11-.52,1.69-.73.06,0,.26.37.39.57l-1.85.43Z"/><path class="cls-6" d="M97.32,52.89l2-.52L97.78,53.5C97.63,53.3,97.48,53.09,97.32,52.89Z"/><path class="cls-2" d="M181.53,74.53c-.13.11-.26.25-.38.24s-.22-.17-.33-.27A5.62,5.62,0,0,1,181.53,74.53Z"/><path class="cls-8" d="M104.49,70.38l-2.31.53Z"/><path class="cls-2" d="M74.49,75l-.66.64-.23-.5.93-.09Z"/><path class="cls-8" d="M131.75,71l12.86,2.51c-8.9,9.78-19.42,16.43-32.86,18.14-8.58,1.09-17.19,2.47-23.54-4.88-1-1.14,1.26-7.56,3.23-8.3,8.37-3.15,17.16-5.26,25.89-7.37C120,70.5,122.94,71,131.75,71Z"/><path class="cls-6" d="M79.47,121q0-4,0-8l-3.41-4.41L82.68,106l9.83,3.24a1.17,1.17,0,0,1,0,.84Z"/><path class="cls-8" d="M194.1,92.66l3,1.35.43.12.45,0,.05.05L196,96l-3.68-.34-1.2.06c-1.39.11-3.91-3.27-3.86,1.25-3.6,0-7.19,0-10.78-.19,0,0-.25-2.23,0-2.34,3.55-1.32,7.17-2.45,10.77-3.63l-1.67,1,.77,1,2.85-2.34,2,.63Z"/><path class="cls-5" d="M191.66,85l10.15,3.34L197.3,92l-3.38-1Z"/><path class="cls-1" d="M92.51,109.27,82.68,106,87.51,103l4.1,2.57,3.67,3.31a.55.55,0,0,0,.21.51Z"/><path class="cls-5" d="M187.22,97c-.05-4.52,2.47-1.14,3.86-1.25l1.2-.06L196,96,199,97.17c-.67.92-1.33,1.84-2,2.75Z"/><path class="cls-5" d="M186.11,80.05l5.07,4.39Z"/><path class="cls-6" d="M103.27,97.18l-2.16,3.64c.1-1.21.21-2.42.32-3.63Z"/><path class="cls-3" d="M193.92,90.94l3.38,1-3.2.69-2.88-1.59Z"/><path class="cls-1" d="M189.18,90.44l-2.85,2.34-.77-1,1.67-1Z"/><path class="cls-8" d="M87,97c.19.45.52,1,.42,1.08a2.27,2.27,0,0,1-1.22.64c-.18,0-.43-.55-.64-.85Z"/><path class="cls-8" d="M79.49,101l-2.64,1.75-.39-.73,3-1Z"/><path class="cls-8" d="M79.49,101l2.62-1.73.39.68-3,1Z"/><path class="cls-8" d="M178.47,91.63a11.26,11.26,0,0,1-1.87.14c-.26,0-.49-.29-.74-.46.34-.13.68-.4,1-.37A6.89,6.89,0,0,1,178.47,91.63Z"/><path class="cls-8" d="M92.21,96.44c-.23.16-.47.37-.7.37a2.47,2.47,0,0,1-.83-.28c.23-.13.45-.35.69-.37A2.14,2.14,0,0,1,92.21,96.44Z"/><path class="cls-7" d="M122.37,102l4.95.45-2.9,2.51-.67.63.48.27.14-.93,2.95.62c1.62,3.07,3.28,6.11,4.67,9.27a8,8,0,0,1-3.77,2c-5,.09-5.86-3.74-6.88-7.57-.38-1.39-1.8-2.5-2.74-3.74-.87,1.39-1.83,2.74-2.6,4.18-2,3.66-3.85,7.37-5.76,11-1-.65-2.86-1.63-2.76-1.92,1.83-5.33,3.89-10.57,5.9-15.83v0l4.16-.1Zm5.38,13.14c.24.11.54.35.73.28s.23-.45.34-.7c-.25-.11-.53-.35-.73-.29S127.85,114.84,127.75,115.11Z"/><path class="cls-6" d="M173.32,113.89l-8,3.13c-.36-1.47-1.35-4-1-4.26,5.33-3.05,9.17-9.58,16.75-7.58l-1.84,4Z"/><path class="cls-7" d="M148,108.85l-6.67-.65c.44-3.5-.09-9.36,1.51-10,3.6-1.47,8.24-.38,12.46-.26.19,0,.36.64.54,1-1.51.55-3,1.17-4.52,1.63-2,.61-4,1.1-6,1.64q1.67,2.53,3.34,5.07Z"/><path class="cls-7" d="M92.51,109.27l3,.07c1.15,3,10.28.35,5.44,6.53-1.83,2.35-8.09,1.23-12.34,1.69l4-7.45A1.17,1.17,0,0,0,92.51,109.27Z"/><path class="cls-6" d="M95.28,108.83l-3.67-3.31q1.58-2.46,3.13-4.92c2,7.38,10.3,2,13.54,6.76Z"/><path class="cls-1" d="M194.09,107.59l1,8.44-1.34,2.47L188.11,109Z"/><path class="cls-6" d="M96.45,131.94c.87-1.33,1.51-3.46,2.68-3.8,1.59-.47,3.58.42,5.39.73l-8.09,3.06Z"/><path class="cls-6" d="M199,97.17,196,96l2-1.84,9.85,4.24.15,1.42-1.82.17Z"/><path class="cls-1" d="M179.28,109.14l1.84-4,7,3.83Z"/><path class="cls-6" d="M135.33,100c.71,1.34,1.43,2.67,2.15,4a31.75,31.75,0,0,1-5.6-2.08c-.27-.16.74-2.57,1.16-3.94l2.26,2-.18.36Z"/><path class="cls-1" d="M146.87,116.26,145,121.1a26.63,26.63,0,0,1-1.56-5.37c-.08-.93,1.06-2,1.65-3C145.67,113.92,146.26,115.07,146.87,116.26Z"/><path class="cls-6" d="M150.25,110l7-1.49c-.34.54-.66,1.52-1,1.54-2,.1-3.95,0-5.93-.09Z"/><path class="cls-7" d="M139.92,109.26c-.8.57-1.54,1.42-1.9,1.29a8.31,8.31,0,0,1-2.12-1.72l2.33-2.23Z"/><path class="cls-6" d="M157.57,117.73a25.29,25.29,0,0,1-2.4,1.92c-.07,0-1-1-.95-1.09a9.24,9.24,0,0,1,1.8-2A11.8,11.8,0,0,1,157.57,117.73Z"/><path class="cls-7" d="M202.15,105q-.45.1-.87.24l-2.89-1.54,1.14-1.3C200.4,103.27,201.27,104.14,202.15,105Z"/><path class="cls-1" d="M122.37,102l-4.82.89Z"/><path class="cls-6" d="M142.18,115.08l-1.66,1c0-.92,0-1.83,0-2.75Z"/><path class="cls-6" d="M124.42,104.93l2.9-2.51v3.1l-2.95-.62Z"/><path class="cls-6" d="M148,108.85l.63-1.6,1.62,2.74,0,0Z"/><path class="cls-1" d="M206.18,100l1.82-.17c0,.4.08.8.11,1.2l-1,1.14Z"/><path class="cls-6" d="M161.26,120,159,121.26Z"/><path class="cls-7" d="M113.38,103l-.29-.2.3.18Z"/><path class="cls-5" d="M180.88,65.51c1.41-1.09,2.63-2.29,2.81-2.15a12.21,12.21,0,0,1,3,3.26c.18.29-1,1.4-1.54,2.14Z"/><path class="cls-3" d="M130.89,32.54,126,31.31c1.1-.4,2.26-1.22,3.3-1.09a40.16,40.16,0,0,1,6,1.58Z"/><path class="cls-3" d="M166.88,35.24c-.65-1.36-1.34-2.13-1.19-2.69s1.12-.86,1.73-1.27c.29.48.87,1,.8,1.42A10.36,10.36,0,0,1,166.88,35.24Z"/><path class="cls-5" d="M114.4,27.1l-1.93,1.14a4.08,4.08,0,0,0-1-.15l-1.27-.28,4.14-3.7c.11.62.21,1.25.31,1.88Z"/><path class="cls-5" d="M179.24,29.92l.9,2.17c-.18,1.07-.37,2.13-.55,3.19-.37-.14-1.08-.32-1.07-.43C178.71,33.2,179,31.56,179.24,29.92Z"/><path class="cls-5" d="M120.79,38c0-1.66,0-3.31,0-5C121.65,34.72,127.06,36.39,120.79,38Z"/><path class="cls-1" d="M129.12,34.81a15.65,15.65,0,0,1-2.34.52c-.33,0-.67-.3-1-.46a6.85,6.85,0,0,1,1.56-.77C127.67,34,128.09,34.38,129.12,34.81Z"/><path class="cls-6" d="M198,94.1l-.45,0-.43-.12Z"/><path class="cls-2" d="M208.38,241.06l-.3,1.73-1.22-1.09Z"/><path class="cls-1" d="M203.12,150.89l-.78,1.55-1.27-1.5Z"/><path class="cls-3" d="M209.7,234.83q-.64-12.65-1.31-25.29,4.23,2.94,8.44,5.9l-5.9.55c-3,3.64-3.17,7.25.15,10.81Z"/><path class="cls-5" d="M211.08,226.8c-3.32-3.56-3.19-7.17-.15-10.81Z"/><path class="cls-6" d="M163.27,188.91l2.83-2.72L168,192Z"/><path class="cls-2" d="M173.23,24.1l1.94,1Z"/><path class="cls-2" d="M175.21,25.1l.95.95Z"/><path class="cls-1" d="M110.22,27.81l1.27.28-.18,2.14-1.09-.38-.93-1.77A3.81,3.81,0,0,0,110.22,27.81Z"/><path class="cls-2" d="M101.44,230.83l.12-.31-.17.26Z"/><path class="cls-6" d="M182.23,265.77c-3.43.06-7.6,7.37-10.17-1Z"/><path class="cls-5" d="M196.24,258.94a3.47,3.47,0,0,0,0,.72L193.73,258c.46-.36.92-.72,1.39-1.07Z"/><path class="cls-6" d="M184.64,264.8l-2.49,1Z"/><path class="cls-6" d="M122.86,172.37l10.49-3.76Z"/><path class="cls-6" d="M135.85,168.45l8.55-4.27Z"/><path class="cls-6" d="M139.48,157.1a1.42,1.42,0,0,1-.38.24c-.06,0-.25-.17-.23-.23a1.42,1.42,0,0,1,.25-.37C139.24,156.85,139.36,157,139.48,157.1Z"/><path class="cls-2" d="M113.34,43,112,40.22,103.56,45c-.34-1.45-.69-2.89-1-4.33l10.73-2.49C113.29,39.79,113.31,41.4,113.34,43Z"/><path class="cls-6" d="M110.22,29.85l1.09.38,4.2,2.88-6,2,.93-1.93-.13-3.26Z"/><path class="cls-5" d="M110.4,33.15l-.93,1.93-5,.44,2.88-3.82,1.54.39Z"/><path class="cls-3" d="M115.51,33.11l-4.2-2.88.18-2.14a4.08,4.08,0,0,1,1,.15C113,30.16,118.82,28.79,115.51,33.11Z"/><path class="cls-1" d="M110.4,33.15l-1.53-1.06-.36-1,1.76-1.22C110.32,31,110.36,32.07,110.4,33.15Z"/><path class="cls-3" d="M108.51,31.11l.36,1-1.54-.39Z"/><path class="cls-6" d="M192.28,95.65l-1.2.06Z"/><path class="cls-8" d="M127.74,115.09c.11-.25.18-.64.35-.69s.48.18.73.29c-.11.25-.17.63-.34.7S128,115.22,127.74,115.09Z"/><path class="cls-8" d="M124.37,104.9l-.14.93-.48-.27.67-.63Z"/><path class="cls-8" d="M135.33,100l-.21.33.18-.36Z"/></svg>